<?xml version="1.0" encoding="utf-8"?>
<!-- Generator: Adobe Illustrator 29.5.1, SVG Export Plug-In . SVG Version: 9.03 Build 0)  -->
<svg version="1.1" baseProfile="basic" id="Laag_1" xmlns="http://www.w3.org/2000/svg" xmlns:xlink="http://www.w3.org/1999/xlink"
	 x="0px" y="0px" viewBox="0 0 150 150" xml:space="preserve">
<g>
	<g>
		<defs>
			<rect id="SVGID_00000083076010872962873780000004630605995763232670_" width="150" height="150"/>
		</defs>
		<clipPath id="SVGID_00000171705357625158300790000013197572499749381528_">
			<use xlink:href="#SVGID_00000083076010872962873780000004630605995763232670_"  overflow="visible"/>
		</clipPath>
		<g clip-path="url(#SVGID_00000171705357625158300790000013197572499749381528_)">
			<defs>
				<rect id="SVGID_00000163070110302199751590000008648626711048064693_" width="150" height="150"/>
			</defs>
			<clipPath id="SVGID_00000119803201631830803820000001737329707762738100_">
				<use xlink:href="#SVGID_00000163070110302199751590000008648626711048064693_"  overflow="visible"/>
			</clipPath>
			<path clip-path="url(#SVGID_00000119803201631830803820000001737329707762738100_)" fill="#303F56" d="M75,150
				c41.4,0,75-33.6,75-75S116.4,0,75,0S0,33.6,0,75S33.6,150,75,150"/>
			<path clip-path="url(#SVGID_00000119803201631830803820000001737329707762738100_)" fill="#FFDF44" d="M61.8,117.7
				c-11.5,0-20.9-9.4-20.9-20.9c0-7.8,4.3-14.8,11-18.4v8.5c0,3.6,2.9,6.6,6.6,6.6c3.6,0,6.6-3,6.6-6.6V76c0.2,0.1,0.3,0.1,0.5,0.1
				c9.9,1.8,17.1,10.5,17.1,20.6C82.8,108.3,73.4,117.7,61.8,117.7 M111.3,116.1l-6.6-28.7c-0.7-2.9-3.4-5-6.4-5H85.4
				c-1.8-3-4.2-5.6-7-7.7V55.9c0-5-5.3-8-9.6-5.9l-13.2,6.6c-2.3,1.1-3.6,3.4-3.6,5.9V71c0,0-0.1,0-0.1,0
				c-10.7,4.2-17.5,14.2-17.5,25.7c0,15.2,12.4,27.6,27.6,27.6c15.3,0,28.1-12.7,27.5-28.7h3.7l5.4,23.7c0.9,3.5,4.4,5.7,8,4.8
				C110,123.2,112.1,119.6,111.3,116.1"/>
			<path clip-path="url(#SVGID_00000119803201631830803820000001737329707762738100_)" fill="#FFDF44" d="M72.9,22.9
				c-5.5,0-9.9,4.5-9.9,9.9s4.5,9.9,9.9,9.9s9.9-4.5,9.9-9.9S78.3,22.9,72.9,22.9"/>
		</g>
	</g>
</g>
</svg>
