<?xml version="1.0" encoding="utf-8"?>
<!-- Generator: Adobe Illustrator 29.5.1, SVG Export Plug-In . SVG Version: 9.03 Build 0)  -->
<svg version="1.1" baseProfile="basic" id="Laag_1" xmlns="http://www.w3.org/2000/svg" xmlns:xlink="http://www.w3.org/1999/xlink"
	 x="0px" y="0px" viewBox="0 0 150 150" xml:space="preserve">
<g>
	<g>
		<defs>
			<rect id="SVGID_00000173840244987932319540000006442676220006103424_" width="150" height="150"/>
		</defs>
		<clipPath id="SVGID_00000119817803761591671590000003295476652978958738_">
			<use xlink:href="#SVGID_00000173840244987932319540000006442676220006103424_"  overflow="visible"/>
		</clipPath>
		<g clip-path="url(#SVGID_00000119817803761591671590000003295476652978958738_)">
			<defs>
				<rect id="SVGID_00000127030731724244376360000001309439763134366113_" width="150" height="150"/>
			</defs>
			<clipPath id="SVGID_00000164493385338200195890000014167404581765012101_">
				<use xlink:href="#SVGID_00000127030731724244376360000001309439763134366113_"  overflow="visible"/>
			</clipPath>
			<path clip-path="url(#SVGID_00000164493385338200195890000014167404581765012101_)" fill="#303F56" d="M75,150
				c41.4,0,75-33.6,75-75S116.4,0,75,0S0,33.6,0,75S33.6,150,75,150"/>
			<path clip-path="url(#SVGID_00000164493385338200195890000014167404581765012101_)" fill="#FFDF44" d="M107.7,96.8
				c-9.9,0-17.9-8-17.9-17.9s8-17.9,17.9-17.9s17.9,8,17.9,17.9C125.6,88.8,117.6,96.8,107.7,96.8 M75,76.4c-3.2,0-5.8-2.6-5.8-5.8
				c0-3.2,2.6-5.8,5.8-5.8c3.2,0,5.8,2.6,5.8,5.8C80.9,73.8,78.2,76.4,75,76.4 M42.4,96.8c-9.9,0-17.9-8-17.9-17.9S32.4,61,42.4,61
				c9.9,0,17.9,8,17.9,17.9C60.3,88.8,52.3,96.8,42.4,96.8 M125.9,60c-0.7-0.6-1.4-1.2-2.1-1.8l-9.9-8.4c-3.8-2.7-8.4-4.4-13.3-4.8
				l0.5,0.5l-6-6h0c-1.7-1.5-3.9-2.5-6.4-2.5c-4.2,0-7.8,2.7-9,6.5c-1.2-0.8-2.6-1.2-4.1-1.3c-0.2,0-0.5,0-0.7,0
				c-1.7,0-3.3,0.5-4.7,1.4c-1.2-3.8-4.8-6.5-9-6.5c-2.4,0-4.7,0.9-6.4,2.5h0l-6,6l0.5-0.5c-4.9,0.3-9.5,2.1-13.3,4.8l-9.9,8.4
				c-0.7,0.6-1.4,1.2-2.1,1.8c-5,4.8-8,11.5-8,18.9c0,14.5,11.8,26.3,26.3,26.3c13.4,0,24.5-10.1,26.1-23.1c1.9,1.1,4.2,1.7,6.6,1.7
				c2.4,0,4.6-0.6,6.6-1.7c1.6,13,12.7,23,26.1,23c14.5,0,26.3-11.8,26.3-26.3C134,71.5,130.9,64.8,125.9,60"/>
			<path clip-path="url(#SVGID_00000164493385338200195890000014167404581765012101_)" fill="#FFDF44" d="M46.3,81.3
				c3.8,0,7-3.1,7-7c0-3.8-3.1-6.9-7-6.9s-7,3.1-7,6.9C39.3,78.2,42.4,81.3,46.3,81.3"/>
			<path clip-path="url(#SVGID_00000164493385338200195890000014167404581765012101_)" fill="#FFDF44" d="M111.7,81.3
				c3.8,0,7-3.1,7-7c0-3.8-3.1-6.9-7-6.9s-7,3.1-7,6.9C104.7,78.2,107.8,81.3,111.7,81.3"/>
		</g>
	</g>
</g>
</svg>
