<?xml version="1.0" encoding="UTF-8"?>
<svg id="Laag_1" data-name="Laag 1" xmlns="http://www.w3.org/2000/svg" xmlns:xlink="http://www.w3.org/1999/xlink" viewBox="0 0 139.1 177.7">
  <defs>
    <style>
      .cls-1 {
        fill: none;
      }

      .cls-2 {
        fill: #ffdf44;
      }

      .cls-3 {
        fill: #957e17;
      }

      .cls-4 {
        isolation: isolate;
      }

      .cls-5 {
        fill: #303f56;
      }

      .cls-6 {
        clip-path: url(#clippath-1);
      }

      .cls-7 {
        clip-path: url(#clippath-2);
      }

      .cls-8 {
        fill: #fff;
      }

      .cls-9 {
        clip-path: url(#clippath);
      }
    </style>
    <clipPath id="clippath">
      <rect class="cls-1" width="139.1" height="177.7"/>
    </clipPath>
    <clipPath id="clippath-1">
      <rect class="cls-1" width="139.1" height="177.7"/>
    </clipPath>
    <clipPath id="clippath-2">
      <rect class="cls-1" width="139.1" height="177.7"/>
    </clipPath>
  </defs>
  <g class="cls-9">
    <g>
      <rect class="cls-2" width="139.1" height="177.7"/>
      <g class="cls-6">
        <g>
          <path class="cls-3" d="M69.8,117c26.1,0,47.2-21.1,47.2-47.2s-21.1-47.2-47.2-47.2-47.2,21.1-47.2,47.2,21.1,47.2,47.2,47.2"/>
          <path class="cls-2" d="M92.6,86.9c-5.4,0-9.8-4.4-9.8-9.8s1.1-5.2,3.1-7.1l.4-.3,4.6,8.4c.3.6,1,1,1.7,1s.7,0,.9-.2c.5-.3.8-.7.9-1.2s0-1-.2-1.5l-4.6-8.4h.5c.8-.3,1.6-.4,2.4-.4,5.4,0,9.8,4.4,9.8,9.8s-4.4,9.8-9.8,9.8M70.2,71.3h-.3c-.3-.2-.7-.3-1.1-.3h-.2l-5.9-13.2h14.9l-7.4,13.5ZM64.9,72.7c-.5.6-.9,1.4-1,2.2v.3h-4.5v-.3c-.6-3.3-2.4-6.3-5-8.4l-.3-.2,4.5-8.2,6.5,14.4-.2.2ZM55.2,79.6c-1.1,4.3-5,7.3-9.4,7.3s-9.8-4.4-9.8-9.8,4.4-9.8,9.8-9.8,1.6.1,2.4.3h.5c0,.1-4.6,8.5-4.6,8.5h0v.8h0v1h0v.2l.1.2.1.1.2.1s.1,0,.2.1h10.4l-.1.5.2.5ZM52.1,69.7l.4.3c1.3,1.3,2.3,2.9,2.7,4.6v.5c.1,0-6.1,0-6.1,0l3-5.5v.1ZM92.6,63.5c-1.5,0-3,.3-4.5.8h-.3c0,.1-4.9-8.9-4.9-8.9v-3.9h5.9c1.1,0,2.1-.9,2.1-2.1s-.9-2.1-2.1-2.1h-7.9c-1.1,0-2.1.9-2.1,2.1s0,.3,0,.5h0v4h-18l-1.5-3.3h4.3c1.1,0,2-.9,2-2s-.9-2-2-2h-10.9c-1.1,0-2,.9-2,2s.9,2,2,2h2.3l1.3,3-5.9,10.8h-.3c-1.5-.6-3-.9-4.5-.9-7.5,0-13.7,6.1-13.7,13.7s6.1,13.7,13.7,13.7,12.3-4.8,13.5-11.4v-.3h6c.9.9,2.1,1.4,3.3,1.4,2.6,0,4.8-2.1,4.8-4.8s0-.9-.2-1.3v-.2l7.8-14.3,3.5,6.3-.3.2c-3.3,2.6-5.2,6.5-5.2,10.7,0,7.5,6.1,13.7,13.7,13.7s13.7-6.1,13.7-13.7-6.1-13.7-13.7-13.7"/>
        </g>
      </g>
      <g class="cls-4">
        <g class="cls-4">
          <path class="cls-5" d="M12.57,139.8v-7.12c0-.38.22-.6.6-.6h4.88c.4,0,.6.21.6.6v.63c0,.38-.21.6-.6.6h-3.23v1.61h2.28c.38,0,.6.22.6.6v.54c0,.38-.22.59-.6.59h-2.28v2.55c0,.38-.22.6-.6.6h-1.05c-.38,0-.6-.22-.6-.6Z"/>
        </g>
        <g class="cls-4">
          <path class="cls-5" d="M19.32,131.62c0-.74.6-1.33,1.33-1.33s1.33.59,1.33,1.33-.59,1.33-1.33,1.33-1.33-.6-1.33-1.33ZM19.54,139.81v-5.29c0-.37.2-.59.59-.59h1.05c.37,0,.59.22.59.59v5.29c0,.37-.22.59-.59.59h-1.05c-.38,0-.59-.22-.59-.59Z"/>
        </g>
        <g class="cls-4">
          <path class="cls-5" d="M26.69,138.99c.46,0,.91-.14,1.37-.46.23-.18.42-.27.67-.01l.44.45c.28.27.18.49.03.65-.58.62-1.74.95-2.75.95-2.05,0-3.55-1.38-3.55-3.38s1.43-3.35,3.44-3.35c1.02,0,1.87.36,2.42.91.59.59.93,1.43.93,2.32,0,.45-.12.62-.59.62h-4.07c.1.86.82,1.32,1.66,1.32ZM25.03,136.46h2.5c-.05-.31-.18-.56-.36-.74-.23-.23-.52-.36-.9-.36-.68,0-1.15.42-1.24,1.1Z"/>
        </g>
        <g class="cls-4">
          <path class="cls-5" d="M35.28,140.12c-.4.28-1,.45-1.63.45-1.28,0-2.51-.73-2.51-2.48v-2.53h-.56c-.38,0-.59-.22-.59-.59v-.44c0-.38.2-.59.59-.59h.56v-1.49c0-.37.22-.51.59-.59l1.02-.18c.38-.08.59.19.59.58v1.68h1.27c.37,0,.59.21.59.59v.44c0,.37-.22.59-.59.59h-1.27v2.3c0,.63.32.83.72.83.19,0,.38-.09.52-.18.32-.21.47-.05.59.19l.36.83c.14.31-.09.46-.26.59Z"/>
          <path class="cls-5" d="M36.15,139.66c-.29-.27-.36-.51-.05-.86l.31-.37c.29-.36.58-.26.86-.06.44.32,1,.56,1.59.56.38,0,.6-.14.6-.38,0-.31-.4-.45-.81-.59-1.14-.35-2.42-.75-2.42-2.11,0-1.24,1.02-2.02,2.62-2.02.92,0,1.91.32,2.36.7.29.26.35.49.04.87l-.27.33c-.22.28-.52.28-.82.1-.36-.26-.77-.42-1.28-.42-.36,0-.56.14-.56.35,0,.32.59.42,1.4.72,1.05.41,1.83.93,1.83,2.05,0,1.29-1.1,2.06-2.7,2.06-1.13,0-2.18-.45-2.69-.92Z"/>
        </g>
        <g class="cls-4">
          <path class="cls-5" d="M47.47,134.52l-.24.96c-.1.36-.32.44-.54.35-.21-.06-.45-.13-.67-.13-.75,0-1.16.5-1.16,1.25v2.85c0,.37-.21.59-.58.59h-1.06c-.37,0-.58-.22-.58-.59v-5.29c0-.37.2-.59.58-.59h.68c.37,0,.58.22.58.59v.31c.45-.63,1.05-1,1.75-1,.35,0,.65.05.92.14.22.08.42.18.32.55Z"/>
        </g>
        <g class="cls-4">
          <path class="cls-5" d="M47.67,137.2c0-1.93,1.5-3.37,3.57-3.37s3.57,1.43,3.57,3.37-1.5,3.37-3.57,3.37-3.57-1.43-3.57-3.37ZM52.63,137.2c0-.85-.58-1.47-1.38-1.47s-1.4.63-1.4,1.47.59,1.47,1.4,1.47,1.38-.63,1.38-1.47Z"/>
          <path class="cls-5" d="M62.21,134.52v5.29c0,.37-.2.59-.58.59h-.63c-.37,0-.59-.22-.59-.59v-.26c-.38.59-1,1.01-1.91,1.01-1.59,0-2.65-1.05-2.65-2.61v-3.43c0-.37.22-.59.59-.59h1.05c.37,0,.59.22.59.59v3.11c0,.62.36,1.05.95,1.05s.96-.43.96-1.06v-3.1c0-.37.21-.59.58-.59h1.06c.37,0,.58.22.58.59Z"/>
        </g>
        <g class="cls-4">
          <path class="cls-5" d="M68.38,140.12c-.4.28-1,.45-1.63.45-1.28,0-2.51-.73-2.51-2.48v-2.53h-.56c-.38,0-.59-.22-.59-.59v-.44c0-.38.2-.59.59-.59h.56v-1.49c0-.37.22-.51.59-.59l1.02-.18c.38-.08.59.19.59.58v1.68h1.27c.37,0,.59.21.59.59v.44c0,.37-.22.59-.59.59h-1.27v2.3c0,.63.32.83.72.83.19,0,.38-.09.52-.18.32-.21.47-.05.59.19l.36.83c.14.31-.09.46-.26.59Z"/>
        </g>
        <g class="cls-4">
          <path class="cls-5" d="M72.79,138.99c.46,0,.91-.14,1.37-.46.23-.18.42-.27.67-.01l.44.45c.28.27.18.49.03.65-.58.62-1.74.95-2.75.95-2.05,0-3.55-1.38-3.55-3.38s1.43-3.35,3.44-3.35c1.02,0,1.87.36,2.42.91.59.59.93,1.43.93,2.32,0,.45-.12.62-.59.62h-4.07c.1.86.82,1.32,1.66,1.32ZM71.13,136.46h2.5c-.05-.31-.18-.56-.36-.74-.23-.23-.52-.36-.9-.36-.68,0-1.15.42-1.24,1.1Z"/>
        </g>
        <g class="cls-4">
          <path class="cls-5" d="M85.55,134.52l-2.46,5.35c-.17.37-.47.59-.83.59h-.1c-.36,0-.64-.22-.83-.59l-2.6-5.35c-.18-.36.08-.59.45-.59h1.04c.37,0,.56.21.72.59l1.28,3.39,1.25-3.39c.14-.38.35-.59.72-.59h.92c.37,0,.6.23.45.59Z"/>
        </g>
        <g class="cls-4">
          <path class="cls-5" d="M89.69,138.99c.46,0,.91-.14,1.37-.46.23-.18.42-.27.67-.01l.44.45c.28.27.18.49.03.65-.58.62-1.74.95-2.75.95-2.05,0-3.54-1.38-3.54-3.38s1.43-3.35,3.44-3.35c1.02,0,1.87.36,2.42.91.59.59.93,1.43.93,2.32,0,.45-.12.62-.59.62h-4.07c.1.86.82,1.32,1.67,1.32ZM88.04,136.46h2.5c-.05-.31-.18-.56-.36-.74-.23-.23-.52-.36-.9-.36-.68,0-1.15.42-1.24,1.1Z"/>
          <path class="cls-5" d="M98.58,134.52l-.24.96c-.1.36-.32.44-.54.35-.21-.06-.45-.13-.67-.13-.75,0-1.17.5-1.17,1.25v2.85c0,.37-.21.59-.58.59h-1.06c-.37,0-.58-.22-.58-.59v-5.29c0-.37.21-.59.58-.59h.68c.37,0,.58.22.58.59v.31c.45-.63,1.05-1,1.75-1,.35,0,.65.05.92.14.22.08.42.18.32.55Z"/>
          <path class="cls-5" d="M105.83,136.62v3.19c0,.37-.2.59-.59.59h-1.05c-.37,0-.58-.22-.58-.59v-3.02c0-.64-.38-1.08-1.03-1.08s-1.02.44-1.02,1.08v3.02c0,.37-.22.59-.59.59h-1.04c-.37,0-.58-.22-.58-.59v-7.76c0-.37.2-.53.58-.59l1.02-.19c.38-.05.6.21.6.59v2.52c.41-.33.93-.55,1.6-.55,1.56,0,2.66,1.09,2.66,2.79Z"/>
          <path class="cls-5" d="M113.1,136.57v3.24c0,.38-.21.59-.59.59h-.52c-.37,0-.58-.22-.58-.59v-.05c-.54.49-1.26.81-2.05.81-1.52,0-2.52-.82-2.52-2.04,0-1.32,1.09-2.19,2.75-2.19.5,0,1,.12,1.46.27v-.23c0-.6-.42-.96-1.16-.96-.63,0-1.13.19-1.43.37-.28.15-.56.13-.74-.23l-.14-.29c-.22-.41-.12-.64.15-.81.63-.4,1.55-.63,2.32-.63,1.55,0,3.06.68,3.06,2.74ZM111.1,138.42v-.52c-.24-.12-.69-.28-1.15-.28-.63,0-1.04.33-1.04.81s.4.78,1.01.78c.69,0,1.18-.44,1.18-.78Z"/>
        </g>
        <g class="cls-4">
          <path class="cls-5" d="M119.37,134.52l-.24.96c-.1.36-.32.44-.54.35-.21-.06-.45-.13-.67-.13-.75,0-1.16.5-1.16,1.25v2.85c0,.37-.21.59-.58.59h-1.06c-.37,0-.58-.22-.58-.59v-5.29c0-.37.2-.59.58-.59h.68c.37,0,.58.22.58.59v.31c.45-.63,1.05-1,1.75-1,.35,0,.65.05.92.14.22.08.42.18.32.55Z"/>
        </g>
        <g class="cls-4">
          <path class="cls-5" d="M126.61,131.86v7.95c0,.37-.21.59-.58.59h-.68c-.37,0-.59-.22-.59-.59v-.05c-.5.49-1.17.81-2,.81-1.84,0-3.2-1.47-3.2-3.37s1.34-3.37,3.2-3.37c.62,0,1.17.17,1.63.45v-2.23c0-.37.21-.53.58-.59l1.05-.19c.38-.05.59.21.59.59ZM124.5,137.2c0-.9-.6-1.47-1.37-1.47-.81,0-1.38.64-1.38,1.47s.58,1.47,1.38,1.47,1.37-.58,1.37-1.47Z"/>
        </g>
      </g>
      <g class="cls-4">
        <g class="cls-4">
          <path class="cls-5" d="M10.19,155.32v-8.51c0-.14.08-.23.24-.28l.17-.04c.2-.06.29.05.29.24v8.59c0,.17-.1.28-.26.28h-.19c-.15,0-.26-.12-.26-.28Z"/>
          <path class="cls-5" d="M18.01,151.57v3.75c0,.19-.09.28-.26.28h-.17c-.17,0-.26-.12-.26-.28v-.68c-.52.7-1.4,1.11-2.32,1.11-1.47,0-2.47-.82-2.47-2.05s1.08-2.1,2.66-2.1c.83,0,1.55.23,2.12.54v-.72c0-1.04-.77-1.74-1.95-1.74-.69,0-1.42.26-2.09.79-.15.13-.27.08-.37-.04l-.05-.06c-.13-.15-.06-.32.08-.43.83-.64,1.59-.9,2.46-.9,1.65,0,2.6.96,2.6,2.52ZM17.33,153.28v-.49c-.46-.23-1.27-.56-2.11-.56-1.18,0-1.96.59-1.96,1.49,0,.83.73,1.4,1.79,1.4,1.14,0,2.28-.68,2.28-1.83Z"/>
          <path class="cls-5" d="M25.55,151.66v3.66c0,.17-.09.28-.26.28h-.19c-.15,0-.26-.12-.26-.28v-3.6c0-1.24-.78-2.05-2-2.05s-2.11.85-2.11,2.07v3.57c0,.17-.1.28-.26.28h-.19c-.15,0-.26-.12-.26-.28v-5.89c0-.17.1-.27.26-.27h.15c.17,0,.26.1.26.27v.76c.45-.69,1.24-1.14,2.25-1.14,1.59,0,2.6,1.06,2.6,2.61Z"/>
          <path class="cls-5" d="M33.25,149.43v5.63c0,2-1.37,2.93-3.05,2.93-1.24,0-2.15-.46-2.89-1.38-.12-.15-.12-.31.06-.44l.05-.04c.13-.08.27-.12.4.06.56.74,1.29,1.17,2.39,1.17,1.37,0,2.34-.78,2.34-2.29v-1.19c-.52.7-1.36,1.14-2.39,1.14-1.78,0-3.07-1.31-3.07-3s1.29-2.98,3.09-2.98c1.05,0,1.89.45,2.41,1.17v-.78c0-.17.09-.27.26-.27h.15c.17,0,.26.1.26.27ZM32.59,152.04c0-1.36-.99-2.36-2.39-2.36s-2.38,1-2.38,2.34.96,2.36,2.38,2.36,2.39-.99,2.39-2.34Z"/>
          <path class="cls-5" d="M34.79,154.67c-.09-.14-.14-.28.03-.41l.06-.04c.14-.12.26-.14.41.03.41.58,1,.88,1.74.88.91,0,1.52-.45,1.52-1.13,0-.9-.9-1.18-1.81-1.56-.82-.33-1.65-.74-1.65-1.7,0-1.02.84-1.69,2.04-1.69.72,0,1.4.26,1.91.88.1.12.17.26.01.41l-.05.05c-.12.1-.26.15-.42,0-.45-.52-.87-.72-1.47-.72-.77,0-1.29.41-1.29,1s.54.9,1.24,1.18c1.11.46,2.21.82,2.21,2.14,0,1.06-.87,1.77-2.19,1.77-.88,0-1.78-.36-2.29-1.09Z"/>
          <path class="cls-5" d="M45.54,147.55v7.78c0,.18-.1.27-.27.27h-.19c-.17,0-.27-.09-.27-.27v-7.37h-1.23c-.18,0-.31-.09-.23-.29l.05-.12c.08-.19.14-.27.33-.27h1.54c.17,0,.27.09.27.27Z"/>
          <path class="cls-5" d="M47.42,152.89c-.01-1.96,1.4-3.82,3.03-5.67.15-.14.37-.18.49-.08l.1.08c.14.13.12.28-.01.44-1,1.06-1.95,2.28-2.5,3.35h.01c.44-.59,1.27-.86,1.98-.86,1.63,0,2.84,1.18,2.84,2.8s-1.25,2.8-2.97,2.8-2.96-1.13-2.98-2.87ZM52.66,152.96c0-1.24-.96-2.16-2.25-2.16s-2.25.92-2.25,2.16.93,2.14,2.25,2.14,2.25-.91,2.25-2.14Z"/>
          <path class="cls-5" d="M62.92,155.6h-.28c-.18,0-.28-.05-.42-.24l-2.36-2.85-1.08,1.08v1.74c0,.17-.09.28-.26.28h-.18c-.17,0-.26-.12-.26-.28v-8.51c0-.14.06-.23.24-.28l.15-.04c.22-.06.29.05.29.24v5.98l3.34-3.32c.17-.17.23-.23.42-.23h.28c.15,0,.24.15.12.28l-2.61,2.59,2.69,3.29c.12.13.04.28-.1.28Z"/>
          <path class="cls-5" d="M69.54,149.43v5.89c0,.17-.1.28-.26.28h-.17c-.17,0-.26-.12-.26-.28v-.67c-.44.68-1.19,1.1-2.19,1.1-1.47,0-2.48-1.04-2.48-2.61v-3.71c0-.17.09-.27.26-.27h.18c.17,0,.26.1.26.27v3.71c0,1.19.78,1.98,1.9,1.98,1.25,0,2.06-.86,2.06-2.09v-3.61c0-.17.1-.27.26-.27h.19c.15,0,.26.1.26.27Z"/>
          <path class="cls-5" d="M77.16,151.66v3.66c0,.17-.09.28-.26.28h-.19c-.15,0-.26-.12-.26-.28v-3.6c0-1.24-.78-2.05-2-2.05s-2.11.85-2.11,2.07v3.57c0,.17-.1.28-.26.28h-.19c-.15,0-.26-.12-.26-.28v-5.89c0-.17.1-.27.26-.27h.15c.17,0,.26.1.26.27v.76c.45-.69,1.24-1.14,2.25-1.14,1.59,0,2.6,1.06,2.6,2.61Z"/>
        </g>
        <g class="cls-4">
          <path class="cls-5" d="M78.59,154.67c-.09-.14-.14-.28.03-.41l.06-.04c.14-.12.26-.14.41.03.41.58,1,.88,1.74.88.91,0,1.52-.45,1.52-1.13,0-.9-.9-1.18-1.81-1.56-.82-.33-1.65-.74-1.65-1.7,0-1.02.84-1.69,2.04-1.69.72,0,1.4.26,1.91.88.1.12.17.26.01.41l-.05.05c-.12.1-.26.15-.42,0-.45-.52-.87-.72-1.47-.72-.77,0-1.29.41-1.29,1s.54.9,1.24,1.18c1.11.46,2.21.82,2.21,2.14,0,1.06-.87,1.77-2.19,1.77-.88,0-1.78-.36-2.29-1.09Z"/>
        </g>
        <g class="cls-4">
          <path class="cls-5" d="M87.75,155.42c-.33.22-.67.33-1.11.33-1.1,0-1.79-.67-1.79-1.93v-4.07h-.83c-.17,0-.27-.08-.27-.24v-.1c0-.15.1-.24.27-.24h.83v-1.95c0-.13.08-.23.26-.28l.15-.04c.21-.05.29.05.29.24v2.02h1.78c.15,0,.27.09.27.24v.1c0,.17-.12.24-.27.24h-1.78v4.06c0,.88.42,1.32,1.14,1.32.31,0,.51-.1.75-.24.19-.12.31-.06.4.09l.04.05c.1.18-.03.32-.13.4Z"/>
        </g>
        <g class="cls-4">
          <path class="cls-5" d="M97.06,149.43l-2.18,6c-.06.18-.14.23-.26.23h-.01c-.12,0-.18-.05-.26-.23l-1.78-4.98-1.79,4.98c-.08.18-.14.23-.26.23h-.01c-.12,0-.19-.05-.26-.23l-2.14-6c-.05-.14.01-.27.17-.27h.22c.17,0,.28.08.35.26l1.65,4.98,1.81-5.08c.05-.17.14-.22.26-.22h.03c.12,0,.21.05.27.22l1.78,5.08,1.68-4.98c.06-.18.18-.26.35-.26h.22c.17,0,.23.13.18.27Z"/>
        </g>
        <g class="cls-4">
          <path class="cls-5" d="M101.18,155.11c.72,0,1.55-.28,2.2-.93.17-.14.31-.12.42,0l.08.06c.14.14.08.29-.01.4-.73.77-1.79,1.11-2.66,1.11-1.74,0-3.33-1.24-3.33-3.34,0-1.92,1.33-3.37,3.19-3.37.99,0,1.78.4,2.3,1.05.53.59.81,1.37.81,2.18,0,.2-.13.35-.35.35h-5.22c.09,1.57,1.25,2.5,2.57,2.5ZM98.61,151.98h4.85c-.06-.55-.24-1.02-.54-1.4-.4-.56-1.04-.9-1.86-.9-1.36,0-2.32.92-2.46,2.29Z"/>
          <path class="cls-5" d="M108.99,149.49l-.03.1c-.06.19-.21.2-.36.15-.18-.05-.32-.08-.47-.08-.97,0-1.68.93-1.68,2.23v3.42c0,.17-.1.28-.26.28h-.19c-.15,0-.26-.12-.26-.28v-5.89c0-.17.1-.27.26-.27h.15c.17,0,.26.1.26.27v.82c.35-.74.96-1.2,1.78-1.2.26,0,.42.03.64.09.13.04.23.14.15.36Z"/>
        </g>
        <g class="cls-4">
          <path class="cls-5" d="M114.89,155.6h-.28c-.18,0-.28-.05-.42-.24l-2.36-2.85-1.08,1.08v1.74c0,.17-.09.28-.26.28h-.18c-.17,0-.26-.12-.26-.28v-8.51c0-.14.06-.23.24-.28l.15-.04c.22-.06.29.05.29.24v5.98l3.34-3.32c.17-.17.23-.23.42-.23h.28c.15,0,.24.15.12.28l-2.61,2.59,2.69,3.29c.12.13.04.28-.1.28Z"/>
        </g>
        <g class="cls-4">
          <path class="cls-5" d="M118.88,155.11c.72,0,1.55-.28,2.2-.93.17-.14.31-.12.42,0l.08.06c.14.14.08.29-.01.4-.73.77-1.79,1.11-2.66,1.11-1.74,0-3.33-1.24-3.33-3.34,0-1.92,1.33-3.37,3.19-3.37.99,0,1.78.4,2.3,1.05.53.59.81,1.37.81,2.18,0,.2-.13.35-.35.35h-5.22c.09,1.57,1.25,2.5,2.57,2.5ZM116.31,151.98h4.85c-.06-.55-.24-1.02-.54-1.4-.4-.56-1.04-.9-1.86-.9-1.36,0-2.32.92-2.46,2.29Z"/>
          <path class="cls-5" d="M128.97,151.66v3.66c0,.17-.09.28-.26.28h-.19c-.15,0-.26-.12-.26-.28v-3.6c0-1.24-.78-2.05-2-2.05s-2.11.85-2.11,2.07v3.57c0,.17-.1.28-.26.28h-.19c-.15,0-.26-.12-.26-.28v-5.89c0-.17.1-.27.26-.27h.15c.17,0,.26.1.26.27v.76c.45-.69,1.24-1.14,2.25-1.14,1.59,0,2.6,1.06,2.6,2.61Z"/>
        </g>
      </g>
      <rect class="cls-2" x="5" y="90.5" width="131" height="4"/>
      <g class="cls-7">
        <path class="cls-5" d="M108.6,46c8.6,0,15.6-7,15.6-15.6s-7-15.6-15.6-15.6-15.6,7-15.6,15.6,7,15.6,15.6,15.6"/>
      </g>
      <g class="cls-4">
        <g class="cls-4">
          <path class="cls-8" d="M107.51,27.6c0,1.57-1.44,2.66-3.54,2.66-1.21,0-2.38-.54-3.11-1.22-.3-.27-.45-.53-.18-.8l.51-.54c.23-.26.51-.42.84-.11.46.45,1.19.82,1.85.82.76,0,1.21-.42,1.21-1.01s-.58-1.01-1.5-1.01h-.42c-.4,0-.62-.23-.62-.62v-.39c0-.41.22-.62.62-.62h.53c.72,0,1.2-.36,1.2-.89s-.49-.89-1.17-.89c-.57,0-1.08.15-1.54.5-.31.24-.61.2-.85-.11l-.37-.49c-.24-.31-.15-.57.18-.81.81-.61,1.81-.92,2.92-.92,1.86,0,3.16,1.03,3.16,2.48,0,.85-.43,1.47-1.13,1.89.86.43,1.4,1.11,1.4,2.07Z"/>
          <path class="cls-8" d="M112.44,30.26c-2.34,0-3.94-1.84-3.94-4.55s1.61-4.55,3.94-4.55,3.94,1.84,3.94,4.55-1.59,4.55-3.94,4.55ZM112.44,28.32c.97,0,1.62-1.04,1.62-2.61s-.65-2.62-1.62-2.62-1.62,1.04-1.62,2.62.66,2.61,1.62,2.61Z"/>
        </g>
      </g>
      <g class="cls-4">
        <g class="cls-4">
          <path class="cls-8" d="M106.31,39.5h-1.12c-.31,0-.5-.17-.7-.46l-.98-1.46-.33.38v1.07c0,.3-.18.47-.47.47h-.83c-.3,0-.46-.17-.46-.47v-6.24c0-.3.16-.42.46-.47l.82-.15c.31-.06.48.17.48.47v3.77l1.3-1.64c.23-.28.39-.46.7-.46h1.05c.29,0,.48.19.25.47l-1.62,1.92,1.71,2.34c.24.29.04.47-.26.47Z"/>
          <path class="cls-8" d="M115.89,36.46v2.56c0,.3-.17.47-.46.47h-.86c-.3,0-.46-.17-.46-.47v-2.43c0-.53-.29-.87-.78-.87s-.8.34-.8.87v2.43c0,.3-.16.47-.46.47h-.86c-.3,0-.46-.17-.46-.47v-2.43c0-.53-.29-.87-.78-.87s-.8.34-.8.87v2.43c0,.3-.17.47-.46.47h-.85c-.3,0-.46-.17-.46-.47v-4.25c0-.3.17-.47.46-.47h.55c.3,0,.46.17.46.47v.28c.34-.48.86-.83,1.6-.83.69,0,1.25.26,1.61.71.38-.42.95-.71,1.68-.71,1.28,0,2.16.88,2.16,2.25Z"/>
        </g>
      </g>
    </g>
  </g>
</svg>