<?xml version="1.0" encoding="UTF-8"?>
<svg id="Laag_1" data-name="Laag 1" xmlns="http://www.w3.org/2000/svg" xmlns:xlink="http://www.w3.org/1999/xlink" viewBox="0 0 139.1 177.7">
  <defs>
    <style>
      .cls-1 {
        fill: none;
      }

      .cls-2 {
        fill: #ffdf44;
      }

      .cls-3 {
        fill: #957e17;
      }

      .cls-4 {
        isolation: isolate;
      }

      .cls-5 {
        fill: #303f56;
      }

      .cls-6 {
        clip-path: url(#clippath-1);
      }

      .cls-7 {
        clip-path: url(#clippath-2);
      }

      .cls-8 {
        fill: #fff;
      }

      .cls-9 {
        clip-path: url(#clippath);
      }
    </style>
    <clipPath id="clippath">
      <rect class="cls-1" width="139.1" height="177.7"/>
    </clipPath>
    <clipPath id="clippath-1">
      <rect class="cls-1" width="139.1" height="177.7"/>
    </clipPath>
    <clipPath id="clippath-2">
      <rect class="cls-1" width="139.1" height="177.7"/>
    </clipPath>
  </defs>
  <g class="cls-9">
    <g>
      <rect class="cls-2" width="139.1" height="177.7"/>
      <g class="cls-6">
        <g>
          <path class="cls-3" d="M69.8,117.5c26.1,0,47.2-21.1,47.2-47.2s-21.1-47.2-47.2-47.2-47.2,21.1-47.2,47.2,21.1,47.2,47.2,47.2"/>
          <path class="cls-2" d="M44.2,56.7l27.7,28.7c1.3,1.3,3.1,2.1,4.9,2.1h17.9c-.5-1.8-1.7-3.2-3.3-4.1l-6.5-3.5c-2.8-1.5-4.6-4.3-4.9-7.4h-5.5c-.8,0-1.4-.6-1.4-1.4s.6-1.4,1.4-1.4h5.5v-2.7h-5.5c-.8,0-1.4-.6-1.4-1.4s.6-1.4,1.4-1.4h5.5v-2.7h-5.5c-.8,0-1.4-.6-1.4-1.4s.6-1.4,1.4-1.4h5.5v-2.7c0-2.3-1.8-4.1-4.1-4.1h-8.2c-2.3,0-4.1-1.8-4.1-4.1v-1.4c0-2.3-1.8-4.1-4.1-4.1h-.2c-1.1,0-2.2.5-3,1.3l-12.1,13h0v.1Z"/>
          <path class="cls-2" d="M69.9,87.3l-27.5-28.6c-2.6,3.7-2.2,8.8.9,12.1l19.9,20.8c3.4,3.5,8,5.5,12.8,5.5h12.1c3.8,0,6.8-3.1,6.8-6.8h-18.2c-2.6,0-5.1-1.1-6.9-2.9l.1-.1Z"/>
        </g>
      </g>
      <g class="cls-4">
        <g class="cls-4">
          <path class="cls-5" d="M41.57,133.18l-2.74,7.2c-.17.42-.4.59-.78.59h-.13c-.38,0-.63-.17-.78-.59l-1.66-4.4-1.66,4.4c-.15.42-.4.59-.78.59h-.13c-.38,0-.61-.17-.78-.59l-2.74-7.2c-.17-.42.12-.6.51-.6h.95c.4,0,.7.15.84.6l1.42,4.35,1.48-4.43c.13-.4.42-.59.81-.59h.14c.38,0,.68.19.81.59l1.51,4.48,1.43-4.4c.14-.45.45-.6.85-.6h.92c.4,0,.67.18.51.6Z"/>
        </g>
        <g class="cls-4">
          <path class="cls-5" d="M47.59,137.07v3.24c0,.38-.21.59-.59.59h-.52c-.37,0-.58-.22-.58-.59v-.05c-.54.49-1.25.81-2.05.81-1.52,0-2.52-.82-2.52-2.04,0-1.32,1.09-2.19,2.75-2.19.5,0,1,.12,1.46.27v-.23c0-.6-.42-.96-1.17-.96-.63,0-1.13.19-1.43.37-.28.15-.56.13-.74-.23l-.14-.29c-.22-.41-.12-.64.15-.81.63-.4,1.55-.63,2.32-.63,1.55,0,3.06.68,3.06,2.74ZM45.6,138.92v-.52c-.24-.12-.69-.28-1.15-.28-.63,0-1.04.33-1.04.81s.4.78,1.01.78c.69,0,1.18-.44,1.18-.78Z"/>
          <path class="cls-5" d="M55.53,137.12v3.19c0,.37-.22.59-.59.59h-1.05c-.37,0-.59-.22-.59-.59v-3.02c0-.64-.38-1.08-1.01-1.08s-1.04.44-1.04,1.08v3.02c0,.37-.21.59-.58.59h-1.06c-.37,0-.58-.22-.58-.59v-5.29c0-.37.2-.59.58-.59h.68c.37,0,.58.22.58.59v.33c.42-.6,1.06-1.02,2-1.02,1.56,0,2.66,1.09,2.66,2.79Z"/>
          <path class="cls-5" d="M63.62,132.36v7.95c0,.37-.21.59-.58.59h-.68c-.37,0-.59-.22-.59-.59v-.05c-.5.49-1.17.81-2,.81-1.84,0-3.2-1.47-3.2-3.37s1.34-3.37,3.2-3.37c.61,0,1.17.17,1.63.45v-2.23c0-.37.2-.53.58-.59l1.05-.19c.38-.05.59.21.59.59ZM61.51,137.7c0-.9-.6-1.47-1.37-1.47-.81,0-1.38.64-1.38,1.47s.58,1.47,1.38,1.47,1.37-.58,1.37-1.47Z"/>
          <path class="cls-5" d="M68.58,139.49c.46,0,.91-.14,1.37-.46.23-.18.42-.27.67-.01l.44.45c.28.27.18.49.03.65-.58.62-1.74.95-2.75.95-2.05,0-3.55-1.38-3.55-3.38s1.43-3.35,3.44-3.35c1.02,0,1.87.36,2.42.91.59.59.93,1.43.93,2.32,0,.45-.12.62-.59.62h-4.07c.1.86.82,1.32,1.66,1.32ZM66.93,136.96h2.5c-.05-.31-.18-.56-.36-.74-.23-.23-.52-.36-.9-.36-.68,0-1.15.42-1.24,1.1Z"/>
          <path class="cls-5" d="M72.67,140.31v-7.76c0-.37.2-.53.59-.59l1.04-.21c.38-.08.6.21.6.59v7.96c0,.37-.22.59-.59.59h-1.05c-.38,0-.59-.22-.59-.59Z"/>
        </g>
        <g class="cls-4">
          <path class="cls-5" d="M81.27,135.02l-.24.96c-.1.36-.32.44-.54.35-.21-.06-.45-.13-.67-.13-.75,0-1.17.5-1.17,1.25v2.85c0,.37-.21.59-.58.59h-1.06c-.37,0-.58-.22-.58-.59v-5.29c0-.37.21-.59.58-.59h.68c.37,0,.58.22.58.59v.31c.45-.63,1.05-1,1.75-1,.35,0,.65.05.92.14.22.08.42.18.32.55Z"/>
        </g>
        <g class="cls-4">
          <path class="cls-5" d="M81.47,137.7c0-1.93,1.5-3.37,3.57-3.37s3.57,1.43,3.57,3.37-1.5,3.37-3.57,3.37-3.57-1.43-3.57-3.37ZM86.43,137.7c0-.85-.58-1.47-1.38-1.47s-1.4.63-1.4,1.47.59,1.47,1.4,1.47,1.38-.63,1.38-1.47Z"/>
          <path class="cls-5" d="M96.01,135.02v5.29c0,.37-.2.59-.58.59h-.63c-.37,0-.59-.22-.59-.59v-.26c-.38.59-1,1.01-1.91,1.01-1.59,0-2.65-1.05-2.65-2.61v-3.43c0-.37.22-.59.59-.59h1.05c.37,0,.59.22.59.59v3.11c0,.62.36,1.05.95,1.05s.96-.43.96-1.06v-3.1c0-.37.21-.59.58-.59h1.06c.37,0,.58.22.58.59Z"/>
        </g>
        <g class="cls-4">
          <path class="cls-5" d="M102.08,140.62c-.4.28-1,.45-1.63.45-1.28,0-2.51-.73-2.51-2.48v-2.53h-.56c-.38,0-.59-.22-.59-.59v-.44c0-.38.2-.59.59-.59h.56v-1.49c0-.37.22-.51.59-.59l1.02-.18c.38-.08.59.19.59.58v1.68h1.27c.37,0,.59.21.59.59v.44c0,.37-.22.59-.59.59h-1.27v2.3c0,.63.32.83.72.83.19,0,.38-.09.53-.18.32-.21.47-.05.59.19l.36.83c.14.31-.09.46-.26.59Z"/>
        </g>
        <g class="cls-4">
          <path class="cls-5" d="M106.59,139.49c.46,0,.91-.14,1.37-.46.23-.18.42-.27.67-.01l.44.45c.28.27.18.49.03.65-.58.62-1.74.95-2.75.95-2.05,0-3.55-1.38-3.55-3.38s1.43-3.35,3.44-3.35c1.02,0,1.87.36,2.42.91.59.59.93,1.43.93,2.32,0,.45-.12.62-.59.62h-4.07c.1.86.82,1.32,1.67,1.32ZM104.93,136.96h2.5c-.05-.31-.18-.56-.36-.74-.23-.23-.53-.36-.9-.36-.68,0-1.15.42-1.24,1.1Z"/>
        </g>
      </g>
      <g class="cls-4">
        <g class="cls-4">
          <path class="cls-5" d="M11.99,155.82v-8.51c0-.14.08-.23.24-.28l.17-.04c.2-.06.29.05.29.24v8.59c0,.17-.1.28-.26.28h-.19c-.15,0-.26-.12-.26-.28Z"/>
          <path class="cls-5" d="M19.81,152.07v3.75c0,.19-.09.28-.26.28h-.17c-.17,0-.26-.12-.26-.28v-.68c-.52.7-1.4,1.11-2.32,1.11-1.47,0-2.47-.82-2.47-2.05s1.08-2.1,2.66-2.1c.83,0,1.55.23,2.12.54v-.72c0-1.04-.77-1.74-1.95-1.74-.69,0-1.42.26-2.09.79-.15.13-.27.08-.37-.04l-.05-.06c-.13-.15-.06-.32.08-.43.83-.64,1.59-.9,2.46-.9,1.65,0,2.6.96,2.6,2.52ZM19.13,153.78v-.49c-.46-.23-1.27-.56-2.11-.56-1.18,0-1.96.59-1.96,1.49,0,.83.73,1.4,1.79,1.4,1.14,0,2.28-.68,2.28-1.83Z"/>
          <path class="cls-5" d="M27.35,152.16v3.66c0,.17-.09.28-.26.28h-.19c-.15,0-.26-.12-.26-.28v-3.6c0-1.24-.78-2.05-2-2.05s-2.11.85-2.11,2.07v3.57c0,.17-.1.28-.26.28h-.19c-.15,0-.26-.12-.26-.28v-5.89c0-.17.1-.27.26-.27h.15c.17,0,.26.1.26.27v.76c.45-.69,1.24-1.14,2.25-1.14,1.59,0,2.6,1.06,2.6,2.61Z"/>
          <path class="cls-5" d="M35.05,149.93v5.63c0,2-1.37,2.93-3.05,2.93-1.24,0-2.15-.46-2.89-1.38-.12-.15-.12-.31.06-.44l.05-.04c.13-.08.27-.12.4.06.56.74,1.29,1.17,2.39,1.17,1.37,0,2.34-.78,2.34-2.29v-1.19c-.52.7-1.36,1.14-2.39,1.14-1.78,0-3.07-1.31-3.07-3s1.29-2.98,3.09-2.98c1.05,0,1.89.45,2.41,1.17v-.78c0-.17.09-.27.26-.27h.15c.17,0,.26.1.26.27ZM34.39,152.54c0-1.36-.99-2.36-2.39-2.36s-2.38,1-2.38,2.34.96,2.36,2.38,2.36,2.39-.99,2.39-2.34Z"/>
          <path class="cls-5" d="M36.59,155.17c-.09-.14-.14-.28.03-.41l.06-.04c.14-.12.26-.14.41.03.41.58,1,.88,1.74.88.91,0,1.52-.45,1.52-1.13,0-.9-.9-1.18-1.81-1.56-.82-.33-1.65-.74-1.65-1.7,0-1.02.84-1.69,2.04-1.69.72,0,1.4.26,1.91.88.1.12.17.26.01.41l-.05.05c-.12.1-.26.15-.42,0-.45-.52-.87-.72-1.47-.72-.77,0-1.29.41-1.29,1s.54.9,1.24,1.18c1.11.46,2.21.82,2.21,2.14,0,1.06-.87,1.77-2.19,1.77-.88,0-1.78-.36-2.29-1.09Z"/>
          <path class="cls-5" d="M51.48,153.67c0,1.5-1.27,2.59-3.01,2.59s-3-1.09-3-2.59c0-1.06.7-1.95,1.74-2.28-.68-.32-1.13-.95-1.13-1.7,0-1.19,1.01-2.06,2.38-2.06s2.39.87,2.39,2.06c0,.76-.44,1.38-1.15,1.69,1.05.32,1.77,1.23,1.77,2.29ZM50.75,153.67c0-1.13-.97-1.96-2.28-1.96s-2.27.83-2.27,1.96.96,1.93,2.27,1.93,2.28-.82,2.28-1.93ZM46.84,149.69c0,.83.69,1.45,1.63,1.45s1.64-.62,1.64-1.45-.69-1.41-1.64-1.41-1.63.6-1.63,1.41Z"/>
          <path class="cls-5" d="M61.23,156.1h-.28c-.18,0-.28-.05-.42-.24l-2.36-2.85-1.08,1.08v1.74c0,.17-.09.28-.26.28h-.18c-.17,0-.26-.12-.26-.28v-8.51c0-.14.06-.23.24-.28l.15-.04c.22-.06.29.05.29.24v5.98l3.34-3.32c.17-.17.23-.23.42-.23h.28c.15,0,.24.15.12.28l-2.61,2.59,2.69,3.29c.12.13.04.28-.1.28Z"/>
          <path class="cls-5" d="M67.85,149.93v5.89c0,.17-.1.28-.26.28h-.17c-.17,0-.26-.12-.26-.28v-.67c-.44.68-1.19,1.1-2.19,1.1-1.47,0-2.48-1.04-2.48-2.61v-3.71c0-.17.09-.27.26-.27h.18c.17,0,.26.1.26.27v3.71c0,1.19.78,1.98,1.9,1.98,1.25,0,2.06-.86,2.06-2.09v-3.61c0-.17.1-.27.26-.27h.19c.15,0,.26.1.26.27Z"/>
          <path class="cls-5" d="M75.46,152.16v3.66c0,.17-.09.28-.26.28h-.19c-.15,0-.26-.12-.26-.28v-3.6c0-1.24-.78-2.05-2-2.05s-2.11.85-2.11,2.07v3.57c0,.17-.1.28-.26.28h-.19c-.15,0-.26-.12-.26-.28v-5.89c0-.17.1-.27.26-.27h.15c.17,0,.26.1.26.27v.76c.45-.69,1.24-1.14,2.25-1.14,1.59,0,2.6,1.06,2.6,2.61Z"/>
        </g>
        <g class="cls-4">
          <path class="cls-5" d="M76.89,155.17c-.09-.14-.14-.28.03-.41l.06-.04c.14-.12.26-.14.41.03.41.58,1,.88,1.74.88.91,0,1.52-.45,1.52-1.13,0-.9-.9-1.18-1.8-1.56-.82-.33-1.65-.74-1.65-1.7,0-1.02.84-1.69,2.04-1.69.72,0,1.4.26,1.91.88.1.12.17.26.01.41l-.05.05c-.12.1-.26.15-.42,0-.45-.52-.87-.72-1.47-.72-.77,0-1.29.41-1.29,1s.54.9,1.24,1.18c1.11.46,2.21.82,2.21,2.14,0,1.06-.87,1.77-2.19,1.77-.88,0-1.78-.36-2.29-1.09Z"/>
        </g>
        <g class="cls-4">
          <path class="cls-5" d="M86.05,155.92c-.33.22-.67.33-1.11.33-1.1,0-1.79-.67-1.79-1.93v-4.07h-.83c-.17,0-.27-.08-.27-.24v-.1c0-.15.1-.24.27-.24h.83v-1.95c0-.13.08-.23.26-.28l.15-.04c.21-.05.29.05.29.24v2.02h1.78c.15,0,.27.09.27.24v.1c0,.17-.12.24-.27.24h-1.78v4.06c0,.88.42,1.32,1.14,1.32.31,0,.51-.1.76-.24.19-.12.31-.06.4.09l.04.05c.1.18-.03.32-.13.4Z"/>
        </g>
        <g class="cls-4">
          <path class="cls-5" d="M95.36,149.93l-2.18,6c-.06.18-.14.23-.26.23h-.01c-.12,0-.18-.05-.26-.23l-1.78-4.98-1.79,4.98c-.08.18-.14.23-.26.23h-.01c-.12,0-.19-.05-.26-.23l-2.14-6c-.05-.14.01-.27.17-.27h.22c.17,0,.28.08.35.26l1.65,4.98,1.81-5.08c.05-.17.14-.22.26-.22h.03c.12,0,.21.05.27.22l1.78,5.08,1.68-4.98c.06-.18.18-.26.35-.26h.22c.17,0,.23.13.18.27Z"/>
        </g>
        <g class="cls-4">
          <path class="cls-5" d="M99.48,155.61c.72,0,1.55-.28,2.2-.93.17-.14.31-.12.42,0l.08.06c.14.14.08.29-.01.4-.73.77-1.79,1.11-2.66,1.11-1.74,0-3.33-1.24-3.33-3.34,0-1.92,1.33-3.37,3.19-3.37.99,0,1.78.4,2.3,1.05.53.59.81,1.37.81,2.18,0,.2-.13.35-.35.35h-5.22c.09,1.57,1.25,2.5,2.57,2.5ZM96.91,152.48h4.85c-.06-.55-.24-1.02-.54-1.4-.4-.56-1.04-.9-1.86-.9-1.36,0-2.32.92-2.46,2.29Z"/>
          <path class="cls-5" d="M107.29,149.99l-.03.1c-.06.19-.21.2-.36.15-.18-.05-.32-.08-.47-.08-.97,0-1.68.93-1.68,2.23v3.42c0,.17-.1.28-.26.28h-.19c-.15,0-.26-.12-.26-.28v-5.89c0-.17.1-.27.26-.27h.15c.17,0,.26.1.26.27v.82c.35-.74.96-1.2,1.78-1.2.26,0,.42.03.64.09.13.04.23.14.15.36Z"/>
        </g>
        <g class="cls-4">
          <path class="cls-5" d="M113.19,156.1h-.28c-.18,0-.28-.05-.42-.24l-2.36-2.85-1.08,1.08v1.74c0,.17-.09.28-.26.28h-.18c-.17,0-.26-.12-.26-.28v-8.51c0-.14.06-.23.24-.28l.15-.04c.22-.06.29.05.29.24v5.98l3.34-3.32c.17-.17.23-.23.42-.23h.28c.15,0,.24.15.12.28l-2.61,2.59,2.69,3.29c.12.13.04.28-.1.28Z"/>
        </g>
        <g class="cls-4">
          <path class="cls-5" d="M117.18,155.61c.72,0,1.55-.28,2.2-.93.17-.14.31-.12.42,0l.08.06c.14.14.08.29-.01.4-.73.77-1.79,1.11-2.66,1.11-1.74,0-3.33-1.24-3.33-3.34,0-1.92,1.33-3.37,3.19-3.37.99,0,1.78.4,2.3,1.05.53.59.81,1.37.81,2.18,0,.2-.13.35-.35.35h-5.22c.09,1.57,1.25,2.5,2.57,2.5ZM114.61,152.48h4.85c-.06-.55-.24-1.02-.54-1.4-.4-.56-1.04-.9-1.86-.9-1.36,0-2.32.92-2.46,2.29Z"/>
          <path class="cls-5" d="M127.27,152.16v3.66c0,.17-.09.28-.26.28h-.19c-.15,0-.26-.12-.26-.28v-3.6c0-1.24-.78-2.05-2-2.05s-2.11.85-2.11,2.07v3.57c0,.17-.1.28-.26.28h-.19c-.15,0-.26-.12-.26-.28v-5.89c0-.17.1-.27.26-.27h.15c.17,0,.26.1.26.27v.76c.45-.69,1.24-1.14,2.25-1.14,1.59,0,2.6,1.06,2.6,2.61Z"/>
        </g>
      </g>
      <g class="cls-7">
        <path class="cls-5" d="M108.6,46c8.6,0,15.6-7,15.6-15.6s-7-15.6-15.6-15.6-15.6,7-15.6,15.6,7,15.6,15.6,15.6"/>
      </g>
      <g class="cls-4">
        <g class="cls-4">
          <path class="cls-8" d="M106.24,21.96v7.51c0,.42-.22.63-.63.63h-1.08c-.42,0-.63-.22-.63-.63v-6.27h-1.55c-.4,0-.65-.22-.5-.69l.17-.62c.11-.38.34-.57.76-.57h2.84c.42,0,.63.22.63.63Z"/>
          <path class="cls-8" d="M115.05,27.43v.38c0,.39-.23.61-.63.61h-.61v1.08c0,.39-.23.61-.63.61h-1c-.41,0-.63-.22-.63-.62v-1.07h-3.43c-.41,0-.63-.22-.63-.61v-.54c0-.39.09-.58.31-.85l3.58-4.48c.3-.36.45-.61,1.16-.61h.57c.43,0,.72.3.72.7v4.77h.61c.42,0,.63.22.63.63ZM111.55,26.79v-2.39l-1.84,2.39h1.84Z"/>
        </g>
      </g>
      <g class="cls-4">
        <g class="cls-4">
          <path class="cls-8" d="M106.31,39.5h-1.12c-.31,0-.5-.17-.7-.46l-.98-1.46-.33.38v1.07c0,.3-.18.47-.47.47h-.83c-.3,0-.46-.17-.46-.47v-6.24c0-.3.16-.42.46-.47l.82-.15c.31-.06.48.17.48.47v3.77l1.3-1.64c.23-.28.39-.46.7-.46h1.05c.29,0,.48.19.25.47l-1.62,1.92,1.71,2.34c.24.29.04.47-.26.47Z"/>
          <path class="cls-8" d="M115.89,36.46v2.56c0,.3-.17.47-.46.47h-.86c-.3,0-.46-.17-.46-.47v-2.43c0-.53-.29-.87-.78-.87s-.8.34-.8.87v2.43c0,.3-.16.47-.46.47h-.86c-.3,0-.46-.17-.46-.47v-2.43c0-.53-.29-.87-.78-.87s-.8.34-.8.87v2.43c0,.3-.17.47-.46.47h-.85c-.3,0-.46-.17-.46-.47v-4.25c0-.3.17-.47.46-.47h.55c.3,0,.46.17.46.47v.28c.34-.48.86-.83,1.6-.83.69,0,1.25.26,1.61.71.38-.42.95-.71,1.68-.71,1.28,0,2.16.88,2.16,2.25Z"/>
        </g>
      </g>
    </g>
  </g>
</svg>