<?xml version="1.0" encoding="utf-8"?>
<!-- Generator: Adobe Illustrator 29.5.1, SVG Export Plug-In . SVG Version: 9.03 Build 0)  -->
<svg version="1.1" baseProfile="basic" id="Laag_1" xmlns="http://www.w3.org/2000/svg" xmlns:xlink="http://www.w3.org/1999/xlink"
	 x="0px" y="0px" viewBox="0 0 150 150" xml:space="preserve">
<g>
	<g>
		<defs>
			<rect id="SVGID_00000074441824499975643720000007730138658382100129_" width="150" height="150"/>
		</defs>
		<clipPath id="SVGID_00000013176347355588092420000014439021883774197395_">
			<use xlink:href="#SVGID_00000074441824499975643720000007730138658382100129_"  overflow="visible"/>
		</clipPath>
		<g clip-path="url(#SVGID_00000013176347355588092420000014439021883774197395_)">
			<defs>
				<rect id="SVGID_00000102530510789896539270000007414948594956900750_" width="150" height="150"/>
			</defs>
			<clipPath id="SVGID_00000060741841183050978870000007162303456143181465_">
				<use xlink:href="#SVGID_00000102530510789896539270000007414948594956900750_"  overflow="visible"/>
			</clipPath>
			<path clip-path="url(#SVGID_00000060741841183050978870000007162303456143181465_)" fill="#303F56" d="M75,150
				c41.4,0,75-33.6,75-75S116.4,0,75,0S0,33.6,0,75S33.6,150,75,150"/>
			<path clip-path="url(#SVGID_00000060741841183050978870000007162303456143181465_)" fill="#FFDF44" d="M84.6,55.5h-0.3H65.4h-0.7
				c-3.9,0-7,3.1-7,7c0,3.9,3.1,7,7,7h0.7v40.6h-7.6v13.9h34.4v-13.9h-7.6L84.6,55.5L84.6,55.5z M73.9,24.7
				c6.5,0,11.7,5.2,11.7,11.7c0,6.5-5.2,11.7-11.7,11.7s-11.7-5.2-11.7-11.7C62.2,30,67.5,24.7,73.9,24.7"/>
		</g>
	</g>
</g>
</svg>
