<?xml version="1.0" encoding="utf-8"?>
<!-- Generator: Adobe Illustrator 29.5.1, SVG Export Plug-In . SVG Version: 9.03 Build 0)  -->
<svg version="1.1" baseProfile="basic" id="Laag_1" xmlns="http://www.w3.org/2000/svg" xmlns:xlink="http://www.w3.org/1999/xlink"
	 x="0px" y="0px" viewBox="0 0 150 150" xml:space="preserve">
<g>
	<g>
		<defs>
			<rect id="SVGID_00000044150290325404429680000010367359206344117433_" width="150" height="150"/>
		</defs>
		<clipPath id="SVGID_00000158724194787664501790000002146351870872264082_">
			<use xlink:href="#SVGID_00000044150290325404429680000010367359206344117433_"  overflow="visible"/>
		</clipPath>
		<g clip-path="url(#SVGID_00000158724194787664501790000002146351870872264082_)">
			<defs>
				<rect id="SVGID_00000067216638605021494390000009452751349801366440_" width="150" height="150"/>
			</defs>
			<clipPath id="SVGID_00000179641278880286752900000003336517261831218075_">
				<use xlink:href="#SVGID_00000067216638605021494390000009452751349801366440_"  overflow="visible"/>
			</clipPath>
			<path clip-path="url(#SVGID_00000179641278880286752900000003336517261831218075_)" fill="#FFDF44" d="M111.7,81.3
				c3.8,0,7-3.1,7-7c0-3.8-3.1-6.9-7-6.9s-7,3.1-7,6.9C104.7,78.2,107.8,81.3,111.7,81.3"/>
			<path clip-path="url(#SVGID_00000179641278880286752900000003336517261831218075_)" fill="#303F56" d="M75,150
				c41.4,0,75-33.6,75-75S116.4,0,75,0S0,33.6,0,75S33.6,150,75,150"/>
			<path clip-path="url(#SVGID_00000179641278880286752900000003336517261831218075_)" fill="#FFDF44" d="M64.3,43.1
				c-2.1-2.1-3.1-3.2-3.1-5.6s0.9-3.5,3.1-5.6c1.7-1.7,1.7-4.4,0-6.1c-1.7-1.7-4.4-1.7-6.1,0c-2.4,2.4-5.6,5.6-5.6,11.7
				c0,6.1,3.2,9.4,5.6,11.7c2.1,2.1,3.1,3.2,3.1,5.6c0,2.4,1.9,4.3,4.3,4.3c2.4,0,4.3-1.9,4.3-4.3C69.9,48.7,66.7,45.4,64.3,43.1"/>
			<path clip-path="url(#SVGID_00000179641278880286752900000003336517261831218075_)" fill="#FFDF44" d="M84.6,43.1
				c-2.1-2.1-3.1-3.2-3.1-5.6s0.9-3.5,3.1-5.6c1.7-1.7,1.7-4.4,0-6.1c-1.7-1.7-4.4-1.7-6.1,0c-2.4,2.4-5.6,5.6-5.6,11.7
				c0,6.1,3.2,9.4,5.6,11.7c2.1,2.1,3.1,3.2,3.1,5.6c0,2.4,1.9,4.3,4.3,4.3c2.4,0,4.3-1.9,4.3-4.3C90.2,48.7,86.9,45.4,84.6,43.1"/>
			<path clip-path="url(#SVGID_00000179641278880286752900000003336517261831218075_)" fill="#FFDF44" d="M104.7,86.6V76.5h1.4
				c4,0,7.2,3.2,7.2,7.2c0,4-3.2,7.2-7.2,7.2h0h-1.7C104.6,89.5,104.7,88.1,104.7,86.6 M102,99.6h4.1c0,0,0,0,0,0
				c8.8,0,15.9-7.1,15.9-15.9c0-8.8-7.1-15.9-15.9-15.9h-5.8H42.5c-2.4,0-4.3,1.9-4.3,4.3v14.5c0,9.7,4.2,18.5,10.9,24.6h-9.4
				c-2.4,0-4.3,1.9-4.3,4.3c0,2.4,1.9,4.3,4.3,4.3h31.8h31.8c2.4,0,4.3-1.9,4.3-4.3c0-2.4-1.9-4.3-4.3-4.3h-9.4
				C97.3,108,100.1,104.1,102,99.6"/>
		</g>
	</g>
</g>
</svg>
