<?xml version="1.0" encoding="utf-8"?>
<!-- Generator: Adobe Illustrator 29.5.1, SVG Export Plug-In . SVG Version: 9.03 Build 0)  -->
<svg version="1.1" baseProfile="basic" id="Laag_1" xmlns="http://www.w3.org/2000/svg" xmlns:xlink="http://www.w3.org/1999/xlink"
	 x="0px" y="0px" viewBox="0 0 150 150" xml:space="preserve">
<g>
	<g>
		<defs>
			<rect id="SVGID_00000043453516026977064460000010957881558671188382_" width="150" height="150"/>
		</defs>
		<clipPath id="SVGID_00000087388381710636780880000006008297366385558426_">
			<use xlink:href="#SVGID_00000043453516026977064460000010957881558671188382_"  overflow="visible"/>
		</clipPath>
		<g clip-path="url(#SVGID_00000087388381710636780880000006008297366385558426_)">
			<defs>
				<rect id="SVGID_00000101072981652059686400000002495965216171173815_" width="150" height="150"/>
			</defs>
			<clipPath id="SVGID_00000181059316068070416780000017848332491983411625_">
				<use xlink:href="#SVGID_00000101072981652059686400000002495965216171173815_"  overflow="visible"/>
			</clipPath>
			<path clip-path="url(#SVGID_00000181059316068070416780000017848332491983411625_)" fill="#303F56" d="M75,150
				c41.4,0,75-33.6,75-75S116.4,0,75,0S0,33.6,0,75S33.6,150,75,150"/>
			<path clip-path="url(#SVGID_00000181059316068070416780000017848332491983411625_)" fill="#FFDF44" d="M59,33.9
				c-2-3.1-6.1-4-9.2-1.9c-0.1,0.1-0.2,0.1-0.3,0.2c-10.1,7.8-16,19.9-16.1,32.6h45.3L59,33.9z"/>
			<path clip-path="url(#SVGID_00000181059316068070416780000017848332491983411625_)" fill="#FFDF44" d="M104.1,107.3
				c0,3.2-2.5,5.7-5.7,5.7c-3.2,0-5.7-2.5-5.7-5.7s2.5-5.7,5.7-5.7C101.6,101.6,104.1,104.2,104.1,107.3 M47.6,112.9
				c-3.2,0-5.7-2.5-5.7-5.7s2.5-5.7,5.7-5.7c3.2,0,5.7,2.5,5.7,5.7S50.6,112.9,47.6,112.9 M121.1,47.9h-8.5
				c-6.2,0-11.4,5.1-11.4,11.4v11.4H33.4c0,9,4.1,17,10.7,23.2c-7.6,1.8-12.4,9.5-10.6,17.3c1.8,7.7,9.5,12.4,17.3,10.6
				c7.6-1.8,12.4-9.5,10.6-17.3c-0.1-0.5-0.2-0.9-0.3-1.2c7.9,2.2,16.2,2.2,24.2,0c-0.5,1.5-0.8,3-0.8,4.4c0,7.8,6.2,14.2,14.1,14.2
				c7.8,0,14.2-6.2,14.2-14.1c0-6.5-4.4-12.2-10.7-13.7c6.6-6,10.7-14.2,10.7-23.2V59.1h8.5c1.6,0,2.8-1.2,2.8-2.8v-5.7
				C124,49.1,122.7,47.9,121.1,47.9"/>
		</g>
	</g>
</g>
</svg>
