<?xml version="1.0" encoding="utf-8"?>
<!-- Generator: Adobe Illustrator 29.5.1, SVG Export Plug-In . SVG Version: 9.03 Build 0)  -->
<svg version="1.1" baseProfile="basic" id="Laag_1" xmlns="http://www.w3.org/2000/svg" xmlns:xlink="http://www.w3.org/1999/xlink"
	 x="0px" y="0px" viewBox="0 0 150 150" xml:space="preserve">
<g>
	<g>
		<defs>
			<rect id="SVGID_00000150065661491457426380000010600046324090393527_" width="150" height="150"/>
		</defs>
		<clipPath id="SVGID_00000033335958386962180790000001373559764805861302_">
			<use xlink:href="#SVGID_00000150065661491457426380000010600046324090393527_"  overflow="visible"/>
		</clipPath>
		<g clip-path="url(#SVGID_00000033335958386962180790000001373559764805861302_)">
			<defs>
				<rect id="SVGID_00000018939042265490386790000002255153914706655117_" width="150" height="150"/>
			</defs>
			<clipPath id="SVGID_00000130641163053326364560000000194091360750819242_">
				<use xlink:href="#SVGID_00000018939042265490386790000002255153914706655117_"  overflow="visible"/>
			</clipPath>
			<path clip-path="url(#SVGID_00000130641163053326364560000000194091360750819242_)" fill="#303F56" d="M75,150
				c41.4,0,75-33.6,75-75S116.4,0,75,0S0,33.6,0,75S33.6,150,75,150"/>
			<path clip-path="url(#SVGID_00000130641163053326364560000000194091360750819242_)" fill="#FFDF44" d="M103.3,51.6
				c-0.2,4.1-0.6,7.4-1,10c-1,5.9-6.4,11.2-12.2,12.2c-3.6,0.6-8.4,1.1-15,1.2c-6.6,0-11.5-0.6-15-1.2c-5.9-1-11.2-6.4-12.2-12.2
				c-0.4-2.6-0.8-5.9-1-10c-0.1-2.7,2.1-5,4.8-5h47C101.3,46.6,103.5,48.9,103.3,51.6L103.3,51.6z M94.1,98.4
				c-3.8,0-6.9-3.1-6.9-6.9s3.1-6.9,6.9-6.9c3.8,0,6.9,3.1,6.9,6.9S97.9,98.4,94.1,98.4 M55.9,98.4c-3.8,0-6.9-3.1-6.9-6.9
				s3.1-6.9,6.9-6.9c3.8,0,6.9,3.1,6.9,6.9S59.7,98.4,55.9,98.4 M112.7,99.9c1.2-2.1,2.1-4.4,2.5-6.7c0.9-5.2,1.7-12.4,1.7-22.1
				c0-9.8-0.8-16.9-1.7-22.1c-1.5-8.6-9.4-16.5-18-18c-5.2-0.9-12.4-1.7-22.1-1.7c-9.8,0-16.9,0.8-22.1,1.7c-8.6,1.5-16.5,9.4-18,18
				c-0.9,5.2-1.7,12.4-1.7,22.1c0,9.8,0.8,16.9,1.7,22.1c0.4,2.3,1.3,4.6,2.5,6.7c1.8,3,4.2,5.6,7,7.5l-6.6,10
				c-1,1.5,0.1,3.5,1.8,3.5l6.2,0c0.7,0,1.4-0.4,1.9-1l5.9-8.8c1.2,0.2,2.5,0.3,3.8,0.3h35.5c1.3,0,2.5-0.1,3.8-0.3l5.9,8.8
				c0.4,0.6,1.1,1,1.9,1l6.2,0c1.8,0,2.8-2,1.8-3.5l-6.6-10C108.5,105.5,110.9,102.9,112.7,99.9L112.7,99.9z"/>
		</g>
	</g>
</g>
</svg>
