<svg version="1.2" xmlns="http://www.w3.org/2000/svg" viewBox="0 0 150 150" width="150" height="150">
	<title>WB plattegrond-Pointer</title>
	<defs>
		<clipPath clipPathUnits="userSpaceOnUse" id="cp1">
			<path d="m0 0h150v150h-150z"/>
		</clipPath>
	</defs>
	<style>
		.s0 { fill: #2f3f56 } 
		.s1 { fill: #ffdf43 } 
	</style>
	<g id="Clip-Path" clip-path="url(#cp1)">
		<g>
			<path class="s0" d="m75 150c41.4 0 75-33.6 75-75 0-41.4-33.6-75-75-75-41.4 0-75 33.6-75 75 0 41.4 33.6 75 75 75z"/>
			<path class="s1" d="m107 58.3c0-17.7-14.3-32-32-32-17.7 0-32.8 14.3-32 32 0.1 2.8 0.8 6.6 2.1 11.2l22.8 48.4c1.2 2.8 4.1 4.4 7.1 4.4 3 0 5.9-1.7 7.2-4.4l22.8-48.4c1.6-3.4 2.1-7.4 2.1-11.2m-16.1 0c0 8.8-7.2 16-16 16-8.8 0-16-7.2-16-16 0-8.8 7.2-16 16-16 8.8 0 16 7.2 16 16z"/>
		</g>
	</g>
</svg>