<?xml version="1.0" encoding="utf-8"?>
<!-- Generator: Adobe Illustrator 29.5.1, SVG Export Plug-In . SVG Version: 9.03 Build 0)  -->
<svg version="1.1" baseProfile="basic" id="Laag_1" xmlns="http://www.w3.org/2000/svg" xmlns:xlink="http://www.w3.org/1999/xlink"
	 x="0px" y="0px" viewBox="0 0 346.8 150" xml:space="preserve">
<g>
	<defs>
		<rect id="SVGID_1_" x="-76.7" width="500" height="150"/>
	</defs>
	<clipPath id="SVGID_00000094590909970971319690000012502522328437278386_">
		<use xlink:href="#SVGID_1_"  overflow="visible"/>
	</clipPath>
	<path clip-path="url(#SVGID_00000094590909970971319690000012502522328437278386_)" fill="#967D0F" d="M152.1,29.1
		c-7.5,0-13.7,6.1-13.7,13.7v63.8c0,7.5,6.1,13.7,13.7,13.7h181.1c7.5,0,13.7-6.1,13.7-13.7V42.7c0-7.5-6.1-13.7-13.7-13.7H152.1z"
		/>
</g>
<text transform="matrix(1 0 0 1 169.3549 92.8418)"><tspan x="0" y="0" fill="#FFFFFF" font-family="'Goldplay-Bold'" font-size="58.6209px">S</tspan><tspan x="34.5" y="0" fill="#FFFFFF" font-family="'Goldplay-Bold'" font-size="58.6209px">ta</tspan><tspan x="94" y="0" fill="#FFFFFF" font-family="'Goldplay-Bold'" font-size="58.6209px">r</tspan><tspan x="120.2" y="0" fill="#FFFFFF" font-family="'Goldplay-Bold'" font-size="58.6209px">t</tspan></text>
<rect x="120.2" y="29.1" fill="#967D0F" width="43.3" height="91.1"/>
<g>
	<defs>
		<rect id="SVGID_00000168116571042861426460000004085825928752105149_" x="-76.7" width="500" height="150"/>
	</defs>
	<clipPath id="SVGID_00000104681367694925188030000004190996364780596896_">
		<use xlink:href="#SVGID_00000168116571042861426460000004085825928752105149_"  overflow="visible"/>
	</clipPath>
	<path clip-path="url(#SVGID_00000104681367694925188030000004190996364780596896_)" fill="#2F3F56" d="M74.7,150
		c41.4,0,75-33.6,75-75s-33.6-75-75-75s-75,33.6-75,75S33.3,150,74.7,150"/>
	<path clip-path="url(#SVGID_00000104681367694925188030000004190996364780596896_)" fill="#FFDF43" d="M106.7,58.3
		c0-17.7-14.3-32-32-32c-17.7,0-32,14.3-32,32c0,3.8,0.4,7.8,2.1,11.2l22.8,48.4c1.2,2.8,4.1,4.4,7.1,4.4s5.9-1.7,7.2-4.4l22.8-48.4
		C106.3,66,106.7,62.1,106.7,58.3 M90.7,58.3c0,8.8-7.2,16-16,16c-8.8,0-16-7.2-16-16s7.2-16,16-16C83.5,42.3,90.7,49.5,90.7,58.3"
		/>
</g>
</svg>
