<?xml version="1.0" encoding="utf-8"?>
<!-- Generator: Adobe Illustrator 29.5.1, SVG Export Plug-In . SVG Version: 9.03 Build 0)  -->
<svg version="1.1" baseProfile="basic" id="Laag_1" xmlns="http://www.w3.org/2000/svg" xmlns:xlink="http://www.w3.org/1999/xlink"
	 x="0px" y="0px" viewBox="0 0 150 150" xml:space="preserve">
<g>
	<g>
		<defs>
			<rect id="SVGID_00000011722054623067309050000005606040060669730228_" width="150" height="150"/>
		</defs>
		<clipPath id="SVGID_00000116235507825238129060000009364190662838825601_">
			<use xlink:href="#SVGID_00000011722054623067309050000005606040060669730228_"  overflow="visible"/>
		</clipPath>
		<g clip-path="url(#SVGID_00000116235507825238129060000009364190662838825601_)">
			<defs>
				<rect id="SVGID_00000057862115729041949040000000354797640399825284_" width="150" height="150"/>
			</defs>
			<clipPath id="SVGID_00000054987252264423303730000004085690859378140855_">
				<use xlink:href="#SVGID_00000057862115729041949040000000354797640399825284_"  overflow="visible"/>
			</clipPath>
			<path clip-path="url(#SVGID_00000054987252264423303730000004085690859378140855_)" fill="#FFDF44" d="M75,81.3c3.8,0,7-3.1,7-7
				c0-3.8-3.1-6.9-7-6.9s-7,3.1-7,6.9C68,78.2,71.2,81.3,75,81.3"/>
			<path clip-path="url(#SVGID_00000054987252264423303730000004085690859378140855_)" fill="#303F56" d="M75,150
				c41.4,0,75-33.6,75-75S116.4,0,75,0S0,33.6,0,75S33.6,150,75,150"/>
			<path clip-path="url(#SVGID_00000054987252264423303730000004085690859378140855_)" fill="#FFDF44" d="M80.1,115.4l0-9.8
				c0-0.6-0.5-1.1-1.1-1.1H65.6c-0.6,0-1.1,0.5-1.1,1.1v1l-20.8,0c-0.3,0-0.6,0.1-0.8,0.3l-4.4,4.2c-0.4,0.4-0.4,1.2,0,1.6l3.4,3.4
				c0.2,0.2,0.5,0.3,0.8,0.3h3.8c0.3,0,0.6-0.1,0.8-0.3l1.8-1.7l1.2,1.6c0.2,0.3,0.6,0.4,0.9,0.4l2.4,0c0.3,0,0.5-0.1,0.7-0.3
				l1.8-1.5l2.4,1.5c0.4,0.3,0.9,0.2,1.3,0l2.6-1.8l2.5,1.8c0.2,0.1,0.4,0.2,0.7,0.2H79C79.6,116.6,80.1,116.1,80.1,115.4"/>
			<path clip-path="url(#SVGID_00000054987252264423303730000004085690859378140855_)" fill="#FFDF44" d="M101.9,116.8L101.9,116.8
				l0-12.6c0.3-3.2-2.1-5.9-5.3-6.2c-0.3,0-0.6,0-0.9,0H76.9c-1.3,0-2.4,1.1-2.4,2.4v20c0,1.3,1.1,2.4,2.4,2.4l18.8,0.1
				C99.6,123,101.9,120.7,101.9,116.8"/>
			<path clip-path="url(#SVGID_00000054987252264423303730000004085690859378140855_)" fill="#FFDF44" d="M108.1,86.9
				c-7.6,0-13.8-6.2-13.8-13.8c0-3.8,1.5-7.4,4.3-10l0.5-0.5l6.5,11.8c0.5,0.9,1.4,1.4,2.4,1.4c0.5,0,0.9-0.1,1.3-0.3
				c0.6-0.4,1.1-0.9,1.3-1.7c0.2-0.7,0.1-1.5-0.2-2.1L104,59.9l0.7-0.2c1.2-0.3,2.3-0.4,3.4-0.4c7.6,0,13.8,6.2,13.8,13.8
				C121.9,80.7,115.7,86.9,108.1,86.9 M76.4,64.8L76,64.7c-0.5-0.1-1-0.2-1.5-0.3l-0.3,0l-8.4-18.6h21.1L76.4,64.8z M68.8,66.8
				c-0.7,0.9-1.2,1.9-1.4,3l-0.1,0.4H61l-0.1-0.5c-0.8-4.7-3.3-8.9-7-11.9l-0.4-0.3l6.4-11.5L69,66.6L68.8,66.8z M55.2,76.5
				c-1.6,6.1-7.1,10.3-13.3,10.3c-7.6,0-13.8-6.2-13.8-13.8c0-7.6,6.2-13.8,13.8-13.8c1.1,0,2.3,0.1,3.4,0.4l0.7,0.2l-6.5,11.8
				c0,0,0,0.1-0.1,0.1c0,0.1-0.1,0.2-0.1,0.3c0,0.1-0.1,0.2-0.1,0.3c0,0.1,0,0.2-0.1,0.3c0,0.1,0,0.2,0,0.3l0,0c0,0,0,0.1,0,0.1l0,0
				l0,0c0,0,0,0.1,0,0.1c0,0.1,0,0.2,0,0.3c0,0.1,0,0.2,0,0.2c0,0.1,0,0.2,0.1,0.3c0,0.1,0.1,0.2,0.1,0.3c0,0.1,0.1,0.1,0.1,0.2l0,0
				c0,0.1,0.1,0.1,0.1,0.2c0,0.1,0.1,0.1,0.2,0.2c0.1,0.1,0.1,0.1,0.2,0.2c0.1,0.1,0.1,0.1,0.2,0.2c0.1,0.1,0.1,0.1,0.2,0.2l0,0
				c0,0,0,0,0.1,0l0,0c0,0,0.1,0,0.1,0.1c0.1,0,0.2,0.1,0.2,0.1c0.1,0,0.2,0.1,0.3,0.1c0.1,0,0.1,0,0.2,0c0.1,0,0.2,0,0.3,0
				c0,0,0.1,0,0.1,0l13.5,0L55.2,76.5z M50.8,62.6l0.5,0.5c1.9,1.8,3.2,4.1,3.9,6.6l0.2,0.7h-8.8L50.8,62.6z M108.1,53.7
				c-2.1,0-4.3,0.4-6.4,1.1l-0.4,0.2l-7-12.7v-5.5h8.4c1.6,0,2.9-1.3,2.9-2.9c0-1.6-1.3-2.9-2.9-2.9H91.6c-1.6,0-2.9,1.3-2.9,2.9
				c0,0.2,0,0.5,0.1,0.7l0,0.1v5.6H63.3l-2.1-4.7h6.1c1.5,0,2.8-1.2,2.8-2.8S68.8,30,67.3,30H51.9c-1.5,0-2.8,1.2-2.8,2.8
				s1.2,2.8,2.8,2.8h3.3l1.8,4.2L48.7,55l-0.4-0.2c-2.1-0.7-4.2-1.1-6.4-1.1c-10.7,0-19.3,8.7-19.3,19.3c0,10.7,8.7,19.3,19.3,19.3
				c9.5,0,17.5-6.8,19-16.1l0.1-0.5h8.2l0.2,0.1c1.3,1.2,2.9,1.9,4.6,1.9c3.7,0,6.7-3,6.7-6.7c0-0.6-0.1-1.3-0.3-1.9L80.4,69
				l11.2-20.3l4.9,8.9L96.1,58c-4.7,3.7-7.3,9.2-7.3,15.1c0,10.7,8.7,19.3,19.3,19.3s19.3-8.7,19.3-19.3
				C127.5,62.4,118.8,53.7,108.1,53.7"/>
			<path clip-path="url(#SVGID_00000054987252264423303730000004085690859378140855_)" fill="#303F56" d="M93,114.2
				c2.1,0,3.7-1.7,3.7-3.7c0-2.1-1.7-3.7-3.7-3.7s-3.7,1.7-3.7,3.7C89.3,112.6,90.9,114.2,93,114.2"/>
		</g>
	</g>
</g>
</svg>
