<?xml version="1.0" encoding="UTF-8"?>
<svg id="Laag_1" xmlns="http://www.w3.org/2000/svg" xmlns:xlink="http://www.w3.org/1999/xlink" version="1.1" viewBox="0 0 139.1 177.7">
  <!-- Generator: Adobe Illustrator 29.5.1, SVG Export Plug-In . SVG Version: 2.1.0 Build 141)  -->
  <defs>
    <clipPath id="clippath">
      <rect width="139.1" height="177.7" fill="none"/>
    </clipPath>
    <clipPath id="clippath-1">
      <rect width="139.1" height="177.7" fill="none"/>
    </clipPath>
    <clipPath id="clippath-2">
      <rect width="139.1" height="177.7" fill="none"/>
    </clipPath>
  </defs>
  <g clip-path="url(#clippath)">
    <rect width="139.1" height="177.7" fill="#ffdf44"/>
    <g clip-path="url(#clippath-1)">
      <path d="M69.8,117.5c26.1,0,47.2-21.1,47.2-47.2s-21.1-47.2-47.2-47.2-47.2,21.1-47.2,47.2,21.1,47.2,47.2,47.2" fill="#957e17"/>
      <path d="M44.2,56.7l27.7,28.7c1.3,1.3,3.1,2.1,4.9,2.1h17.9c-.5-1.8-1.7-3.2-3.3-4.1l-6.5-3.5c-2.8-1.5-4.6-4.3-4.9-7.4,0,0,0,0,0,0h-5.5c-.8,0-1.4-.6-1.4-1.4s.6-1.4,1.4-1.4h5.5v-2.7h-5.5c-.8,0-1.4-.6-1.4-1.4s.6-1.4,1.4-1.4h5.5v-2.7h-5.5c-.8,0-1.4-.6-1.4-1.4s.6-1.4,1.4-1.4h5.5v-2.7c0-2.3-1.8-4.1-4.1-4.1h-8.2c-2.3,0-4.1-1.8-4.1-4.1v-1.4c0-2.3-1.8-4.1-4.1-4.1h-.2c-1.1,0-2.2.5-3,1.3l-12.1,13h0Z" fill="#ffdf44"/>
      <path d="M69.9,87.3l-27.5-28.6c-2.6,3.7-2.2,8.8.9,12.1l19.9,20.8c3.4,3.5,8,5.5,12.8,5.5h12.1c3.8,0,6.8-3.1,6.8-6.8h-18.2c-2.6,0-5.1-1.1-6.9-2.9Z" fill="#ffdf44"/>
    </g>
    <text transform="translate(29.2 140.9)" fill="#303f56" font-family="Goldplay-Bold, Goldplay" font-size="12.8" font-weight="700"><tspan x="0" y="0" letter-spacing="0em">W</tspan><tspan x="11.8" y="0">andel</tspan><tspan x="46.5" y="0" letter-spacing="0em">r</tspan><tspan x="51.9" y="0">ou</tspan><tspan x="67.5" y="0" letter-spacing="0em">t</tspan><tspan x="73.2" y="0">e</tspan></text>
    <text transform="translate(10.9 156.1)" fill="#303f56" font-family="Goldplay-Regular, Goldplay" font-size="12.8"><tspan x="0" y="0">langs 8 kun</tspan><tspan x="65.5" y="0" letter-spacing="0em">s</tspan><tspan x="71" y="0" letter-spacing="0em">t</tspan><tspan x="75.2" y="0" letter-spacing="0em">w</tspan><tspan x="84.7" y="0">er</tspan><tspan x="96.4" y="0" letter-spacing="0em">k</tspan><tspan x="102.4" y="0">en</tspan></text>
    <g clip-path="url(#clippath-2)">
      <path d="M108.6,46c8.6,0,15.6-7,15.6-15.6s-7-15.6-15.6-15.6-15.6,7-15.6,15.6,7,15.6,15.6,15.6" fill="#303f56"/>
    </g>
    <text transform="translate(101.8 30.1)" fill="#fff" font-family="Goldplay-Bold, Goldplay" font-size="13.5" font-weight="700"><tspan x="0" y="0">14</tspan></text>
    <text transform="translate(115.4 30.1)" fill="#fff" font-family="Goldplay-Bold, Goldplay" font-size="13.5" font-weight="700"><tspan x="0" y="0"> </tspan></text>
    <text transform="translate(100.8 39.5)" fill="#fff" font-family="Goldplay-Bold, Goldplay" font-size="10.3" font-weight="700"><tspan x="0" y="0">km</tspan></text>
  </g>
</svg>