<?xml version="1.0" encoding="UTF-8"?>
<svg id="Laag_1" xmlns="http://www.w3.org/2000/svg" xmlns:xlink="http://www.w3.org/1999/xlink" version="1.1" viewBox="0 0 173.9 243.8">
  <!-- Generator: Adobe Illustrator 29.5.1, SVG Export Plug-In . SVG Version: 2.1.0 Build 141)  -->
  <defs>
    <clipPath id="clippath">
      <rect width="173.9" height="243.8" fill="none"/>
    </clipPath>
    <clipPath id="clippath-1">
      <rect width="173.9" height="243.8" fill="none"/>
    </clipPath>
    <clipPath id="clippath-2">
      <rect width="173.9" height="243.8" fill="none"/>
    </clipPath>
  </defs>
  <g clip-path="url(#clippath)">
    <rect x="0" width="173.9" height="243.8" fill="#303f56"/>
    <g clip-path="url(#clippath-1)">
      <path d="M87.2,146.4c32.6,0,59-26.4,59-59s-26.4-59-59-59-59,26.4-59,59,26.4,59,59,59" fill="#ffdf44"/>
      <path d="M118.6,106.6c-6.7.7-12.7-4.1-13.4-10.8-.4-3.4.7-6.6,2.9-9.2l.4-.5,6.8,9.8c.5.7,1.4,1.1,2.3,1,.4,0,.8-.2,1.1-.4.5-.4.9-.9,1-1.6.1-.6,0-1.3-.4-1.8l-6.8-9.8.6-.2c1-.4,2-.6,3-.7,6.7-.7,12.7,4.1,13.4,10.8.7,6.7-4.1,12.7-10.8,13.4M88.7,90.2h-.4c-.4-.2-.9-.2-1.4-.2h-.3s-9.1-15.6-9.1-15.6l18.5-2-7.4,17.7ZM82.2,92.7c-.6.8-.9,1.8-1,2.8v.4s-5.6.6-5.6.6v-.4c-1.2-4.1-3.8-7.5-7.4-9.8l-.3-.2,4.5-10.7,10,17.1-.2.2ZM71.2,102.5c-.8,5.5-5.2,9.7-10.8,10.3-6.7.7-12.7-4.1-13.4-10.8-.7-6.7,4.1-12.7,10.8-13.4,1-.1,2,0,3,0h.6c0,0-4.6,11.1-4.6,11.1,0,0,0,0,0,.1,0,0,0,.2,0,.2,0,0,0,.2,0,.2,0,0,0,.1,0,.2,0,0,0,.2,0,.2h0c0,0,0,0,0,.1h0s0,0,0,0c0,0,0,0,0,0,0,0,0,.2,0,.3,0,0,0,.1,0,.2,0,0,0,.1,0,.2,0,0,0,.2.1.2,0,0,0,.1.1.2h0c0,0,0,.1.1.2,0,0,.1.1.2.2,0,0,.1.1.2.1,0,0,.1,0,.2.1,0,0,.1,0,.2.1h0s0,0,0,0h0s0,0,.1,0c0,0,.1,0,.2,0,0,0,.2,0,.2,0,0,0,.1,0,.2,0,0,0,.2,0,.3,0,0,0,0,0,.1,0l11.9-1.3v.6ZM66,90.6l.5.4c1.8,1.4,3.2,3.3,4,5.4l.2.6-7.8.8,3-7.2ZM115.5,77.5c-1.9.2-3.7.7-5.5,1.6l-.4.2-7.3-10.5-.5-4.9,7.4-.8c1.4-.2,2.4-1.4,2.3-2.8-.2-1.4-1.4-2.4-2.8-2.3l-9.8,1c-1.4.2-2.4,1.4-2.3,2.8,0,.2,0,.4.2.6h0c0,0,.5,5,.5,5l-22.4,2.4-2.3-3.9,5.3-.6c1.3-.1,2.3-1.4,2.2-2.7-.1-1.3-1.3-2.3-2.7-2.2l-13.5,1.4c-1.3.1-2.3,1.4-2.2,2.7.1,1.3,1.4,2.3,2.7,2.2l2.9-.3,2,3.5-5.9,14.2h-.4c-1.9-.5-3.8-.7-5.7-.5-9.4,1-16.2,9.4-15.2,18.8,1,9.4,9.4,16.2,18.8,15.2,8.3-.9,14.7-7.6,15.2-15.9v-.4s7.3-.8,7.3-.8h.2c1.2,1,2.7,1.5,4.2,1.3,3.3-.3,5.6-3.3,5.3-6.5,0-.6-.2-1.1-.4-1.6v-.2c0,0,7.8-18.9,7.8-18.9l5.2,7.4-.3.3c-3.7,3.7-5.6,8.8-5,14,1,9.4,9.4,16.2,18.8,15.2,9.4-1,16.2-9.4,15.2-18.8-1-9.4-9.4-16.2-18.8-15.2" fill="#303f56"/>
    </g>
    <line x1="48.6" y1="223" x2="68.8" y2="223" fill="none" stroke="#fff" stroke-miterlimit="10" stroke-width=".6"/>
    <text transform="translate(34.1 181.7)" fill="#ffdf44" font-family="Goldplay-Bold, Goldplay" font-size="21" font-weight="700"><tspan x="0" y="0" letter-spacing="0em">F</tspan><tspan x="11.6" y="0">i</tspan><tspan x="17.7" y="0" letter-spacing="0em">e</tspan><tspan x="29.8" y="0">ts</tspan><tspan x="49.6" y="0" letter-spacing="0em">r</tspan><tspan x="58.5" y="0" letter-spacing="0em">ou</tspan><tspan x="84.1" y="0" letter-spacing="0em">t</tspan><tspan x="93.4" y="0" letter-spacing="0em">e</tspan></text>
    <text transform="translate(14.5 203.7)" fill="#ffdf44" font-family="Goldplay-Bold, Goldplay" font-size="21" font-weight="700"><tspan x="0" y="0" letter-spacing="0em">W</tspan><tspan x="19.4" y="0">o</tspan><tspan x="32.4" y="0" letter-spacing="0em">e</tspan><tspan x="44.7" y="0" letter-spacing="0em">s</tspan><tspan x="55" y="0">t&amp;</tspan><tspan x="78.8" y="0" letter-spacing="0em">B</tspan><tspan x="92.2" y="0">ij</tspan><tspan x="104.5" y="0" letter-spacing="0em">s</tspan><tspan x="114.8" y="0" letter-spacing="0em">t</tspan><tspan x="124" y="0">er</tspan></text>
    <text transform="translate(14.7 221.7)" fill="#fff" font-family="Goldplay-Regular, Goldplay" font-size="12.8"><tspan x="0" y="0">langs </tspan></text>
    <text transform="translate(48.6 221.7)" fill="#fff" font-family="Goldplay-Regular, Goldplay" font-size="12.8"><tspan x="0" y="0">alle</tspan></text>
    <text transform="translate(68.8 221.7)" fill="#fff" font-family="Goldplay-Regular, Goldplay" font-size="12.8"><tspan x="0" y="0" xml:space="preserve"> 18 kun</tspan><tspan x="38.6" y="0" letter-spacing="0em">s</tspan><tspan x="44" y="0">t</tspan><tspan x="48.3" y="0" letter-spacing="0em">w</tspan><tspan x="57.7" y="0">er</tspan><tspan x="69.5" y="0" letter-spacing="0em">k</tspan><tspan x="75.5" y="0">en</tspan></text>
    <rect x="6.5" y="118.5" width="70.8" height="5" transform="translate(-6.3 2.4) rotate(-3)" fill="#303f56"/>
    <g clip-path="url(#clippath-2)">
      <path d="M77.2,119.1c8.5-.4,11.6-4.5,17.6-4.9,6.5-.3,9.3,3.4,14.6,3.2,6.1-.3,8.2-4.2,15.9-4.6,5.7-.3,9.4,3.3,16.5,2.9" fill="none" stroke="#303f56" stroke-width="5"/>
      <path d="M135.8,57.5c10.7,0,19.5-8.7,19.5-19.5s-8.7-19.5-19.5-19.5-19.5,8.7-19.5,19.5,8.7,19.5,19.5,19.5" fill="#957e17"/>
    </g>
    <text transform="translate(126 37.5)" fill="#fff" font-family="Goldplay-Bold, Goldplay" font-size="16.9" font-weight="700"><tspan x="0" y="0">34</tspan></text>
    <text transform="translate(145.7 37.5)" fill="#fff" font-family="Goldplay-Bold, Goldplay" font-size="16.9" font-weight="700"><tspan x="0" y="0"> </tspan></text>
    <text transform="translate(126.1 49.3)" fill="#fff" font-family="Goldplay-Bold, Goldplay" font-size="12.8" font-weight="700"><tspan x="0" y="0">km</tspan></text>
  </g>
</svg>