<?xml version="1.0" encoding="utf-8"?>
<!-- Generator: Adobe Illustrator 29.5.1, SVG Export Plug-In . SVG Version: 9.03 Build 0)  -->
<svg version="1.1" baseProfile="basic" id="Laag_1" xmlns="http://www.w3.org/2000/svg" xmlns:xlink="http://www.w3.org/1999/xlink"
	 x="0px" y="0px" viewBox="0 0 150 150" xml:space="preserve">
<g>
	<g>
		<defs>
			<rect id="SVGID_00000089564127628518050020000017649398325050177153_" width="150" height="150"/>
		</defs>
		<clipPath id="SVGID_00000153672400625969015690000011931416817967880835_">
			<use xlink:href="#SVGID_00000089564127628518050020000017649398325050177153_"  overflow="visible"/>
		</clipPath>
		<g clip-path="url(#SVGID_00000153672400625969015690000011931416817967880835_)">
			<defs>
				<rect id="SVGID_00000181801468373979546970000006651386795880427673_" width="150" height="150"/>
			</defs>
			<clipPath id="SVGID_00000163073929581535804030000004281536822645718202_">
				<use xlink:href="#SVGID_00000181801468373979546970000006651386795880427673_"  overflow="visible"/>
			</clipPath>
			<path clip-path="url(#SVGID_00000163073929581535804030000004281536822645718202_)" fill="#FFDF44" d="M111.7,81.3
				c3.8,0,7-3.1,7-7c0-3.8-3.1-6.9-7-6.9s-7,3.1-7,6.9C104.7,78.2,107.8,81.3,111.7,81.3"/>
			<path clip-path="url(#SVGID_00000163073929581535804030000004281536822645718202_)" fill="#303F56" d="M75,150
				c41.4,0,75-33.6,75-75S116.4,0,75,0S0,33.6,0,75S33.6,150,75,150"/>
			<path clip-path="url(#SVGID_00000163073929581535804030000004281536822645718202_)" fill="#FFDF44" d="M108.2,113.4
				c-1.9,0-3.5-1.5-3.5-3.5c0-1.9,1.5-3.5,3.5-3.5c1.9,0,3.5,1.5,3.5,3.5C111.6,111.9,110.1,113.4,108.2,113.4 M78.7,110
				c0-1.9,1.5-3.5,3.5-3.5c1.9,0,3.5,1.5,3.5,3.5c0,1.9-1.5,3.5-3.5,3.5C80.3,113.4,78.7,111.9,78.7,110 M84,94.9
				c4.5-3,17.8-3,22.3,0c0.9,0.6,2,2.9,3,5.7H81C82,97.8,83.1,95.5,84,94.9 M117.8,99.2c-0.2-0.3-0.6-0.4-0.9-0.4h-4.5
				c-1.1-2.9-2.5-5.7-4.2-6.8c-5.6-3.7-20.6-3.7-26.2,0c-1.6,1.1-3.1,3.9-4.2,6.8h-4.5c-0.4,0-0.7,0.2-0.9,0.4
				c-0.2,0.3-0.3,0.6-0.2,1l0.7,3.2c0.1,0.5,0.6,0.9,1.1,0.9h1.3c-1.3,1.5-1.9,3.3-1.9,5.2c0,2.3,0.9,4.4,2.4,5.8c0,0,0,0,0.1,0v4.5
				c0,1,0.8,1.8,1.8,1.8h4.1c1,0,1.8-0.8,1.8-1.8V118h23v1.8c0,1,0.8,1.8,1.8,1.8h4.1c1,0,1.8-0.8,1.8-1.8v-4.4
				c1.7-1.5,2.5-3.7,2.5-5.8c0-1.9-0.6-3.8-2-5.3h1.4c0.6,0,1-0.4,1.1-0.9l0.7-3.2C118.1,99.9,118,99.5,117.8,99.2"/>
			<path clip-path="url(#SVGID_00000163073929581535804030000004281536822645718202_)" fill="#FFDF44" d="M60.6,70V42.3h9
				c8.6,0,14.2,4.9,14.2,13.9c0,8.9-5.6,13.8-14.2,13.8H60.6z M47.3,121.9h8.1c3.5,0,5.3-2.1,5.3-5.6V84.7h6c22.3,0,32.1-11,32.1-29
				c0-18.1-10-29.1-32.1-29.1H47.4c-3.5,0-5.6,1.9-5.6,5.4v84.2C41.8,119.8,43.8,121.9,47.3,121.9"/>
		</g>
	</g>
</g>
</svg>
