<?xml version="1.0" encoding="UTF-8"?>
<svg id="Laag_1" data-name="Laag 1" xmlns="http://www.w3.org/2000/svg" xmlns:xlink="http://www.w3.org/1999/xlink" viewBox="0 0 173.9 243.8">
  <defs>
    <style>
      .cls-1, .cls-2, .cls-3 {
        fill: none;
      }

      .cls-4 {
        fill: #ffdf44;
      }

      .cls-5 {
        fill: #957e17;
      }

      .cls-6 {
        isolation: isolate;
      }

      .cls-7 {
        fill: #303f56;
      }

      .cls-8 {
        clip-path: url(#clippath-1);
      }

      .cls-9 {
        clip-path: url(#clippath-2);
      }

      .cls-10 {
        fill: #fff;
      }

      .cls-2 {
        stroke: #fff;
        stroke-miterlimit: 10;
        stroke-width: .6px;
      }

      .cls-3 {
        stroke: #303f56;
        stroke-width: 5px;
      }

      .cls-11 {
        clip-path: url(#clippath);
      }
    </style>
    <clipPath id="clippath">
      <rect class="cls-1" width="173.9" height="243.8"/>
    </clipPath>
    <clipPath id="clippath-1">
      <rect class="cls-1" width="173.9" height="243.8"/>
    </clipPath>
    <clipPath id="clippath-2">
      <rect class="cls-1" width="173.9" height="243.8"/>
    </clipPath>
  </defs>
  <g class="cls-11">
    <g>
      <rect class="cls-7" width="173.9" height="243.8"/>
      <g class="cls-8">
        <g>
          <path class="cls-4" d="M87.2,146.4c32.6,0,59-26.4,59-59s-26.4-59-59-59-59,26.4-59,59,26.4,59,59,59"/>
          <path class="cls-7" d="M118.6,106.6c-6.7.7-12.7-4.1-13.4-10.8-.4-3.4.7-6.6,2.9-9.2l.4-.5,6.8,9.8c.5.7,1.4,1.1,2.3,1,.4,0,.8-.2,1.1-.4.5-.4.9-.9,1-1.6.1-.6,0-1.3-.4-1.8l-6.8-9.8.6-.2c1-.4,2-.6,3-.7,6.7-.7,12.7,4.1,13.4,10.8.7,6.7-4.1,12.7-10.8,13.4M88.7,90.2h-.4c-.4-.2-.9-.2-1.4-.2h-.3l-9.1-15.6,18.5-2-7.4,17.7.1.1ZM82.2,92.7c-.6.8-.9,1.8-1,2.8v.4l-5.6.6v-.4c-1.2-4.1-3.8-7.5-7.4-9.8l-.3-.2,4.5-10.7,10,17.1-.2.2ZM71.2,102.5c-.8,5.5-5.2,9.7-10.8,10.3-6.7.7-12.7-4.1-13.4-10.8-.7-6.7,4.1-12.7,10.8-13.4,1-.1,2,0,3,0h.6l-4.6,11.1v.9h0v.1h0v.7s0,.2.1.2c0,0,0,.1.1.2h0s0,.1.1.2c0,0,.1.1.2.2,0,0,.1.1.2.1,0,0,.1,0,.2.1,0,0,.1,0,.2.1h1.1l11.9-1.3v.6l.3.7ZM66,90.6l.5.4c1.8,1.4,3.2,3.3,4,5.4l.2.6-7.8.8,3-7.2h.1ZM115.5,77.5c-1.9.2-3.7.7-5.5,1.6l-.4.2-7.3-10.5-.5-4.9,7.4-.8c1.4-.2,2.4-1.4,2.3-2.8-.2-1.4-1.4-2.4-2.8-2.3l-9.8,1c-1.4.2-2.4,1.4-2.3,2.8,0,.2,0,.4.2.6h0l.5,5-22.4,2.4-2.3-3.9,5.3-.6c1.3-.1,2.3-1.4,2.2-2.7-.1-1.3-1.3-2.3-2.7-2.2l-13.5,1.4c-1.3.1-2.3,1.4-2.2,2.7.1,1.3,1.4,2.3,2.7,2.2l2.9-.3,2,3.5-5.9,14.2h-.4c-1.9-.5-3.8-.7-5.7-.5-9.4,1-16.2,9.4-15.2,18.8,1,9.4,9.4,16.2,18.8,15.2,8.3-.9,14.7-7.6,15.2-15.9v-.4l7.3-.8h.2c1.2,1,2.7,1.5,4.2,1.3,3.3-.3,5.6-3.3,5.3-6.5,0-.6-.2-1.1-.4-1.6v-.2l7.8-18.9,5.2,7.4-.3.3c-3.7,3.7-5.6,8.8-5,14,1,9.4,9.4,16.2,18.8,15.2,9.4-1,16.2-9.4,15.2-18.8-1-9.4-9.4-16.2-18.8-15.2"/>
        </g>
      </g>
      <line class="cls-2" x1="48.6" y1="223" x2="68.8" y2="223"/>
      <g class="cls-6">
        <g class="cls-6">
          <path class="cls-4" d="M35.53,180.71v-11.67c0-.63.36-.99.99-.99h8c.65,0,.99.34.99.99v1.03c0,.63-.34.99-.99.99h-5.29v2.64h3.74c.63,0,.99.36.99.99v.88c0,.63-.36.97-.99.97h-3.74v4.18c0,.63-.36.99-.99.99h-1.72c-.63,0-.99-.36-.99-.99Z"/>
        </g>
        <g class="cls-6">
          <path class="cls-4" d="M46.56,167.3c0-1.22.99-2.18,2.18-2.18s2.18.97,2.18,2.18-.97,2.18-2.18,2.18-2.18-.99-2.18-2.18ZM46.92,180.73v-8.67c0-.61.34-.97.97-.97h1.72c.61,0,.97.36.97.97v8.67c0,.61-.36.97-.97.97h-1.72c-.63,0-.97-.36-.97-.97Z"/>
        </g>
        <g class="cls-6">
          <path class="cls-4" d="M58.67,179.39c.76,0,1.49-.23,2.25-.76.38-.29.69-.44,1.09-.02l.71.73c.46.44.29.8.04,1.07-.94,1.01-2.86,1.55-4.51,1.55-3.36,0-5.82-2.27-5.82-5.54s2.35-5.5,5.65-5.5c1.68,0,3.07.59,3.97,1.49.97.97,1.53,2.35,1.53,3.8,0,.74-.19,1.01-.97,1.01h-6.68c.17,1.41,1.34,2.16,2.73,2.16ZM55.96,175.23h4.09c-.08-.5-.29-.92-.59-1.22-.38-.38-.86-.59-1.47-.59-1.11,0-1.89.69-2.04,1.81Z"/>
        </g>
        <g class="cls-6">
          <path class="cls-4" d="M72.72,181.24c-.65.46-1.64.74-2.67.74-2.1,0-4.12-1.2-4.12-4.07v-4.16h-.92c-.63,0-.97-.36-.97-.97v-.71c0-.63.34-.97.97-.97h.92v-2.44c0-.61.36-.84.97-.96l1.68-.29c.63-.12.97.32.97.95v2.75h2.08c.61,0,.97.34.97.97v.71c0,.61-.36.97-.97.97h-2.08v3.78c0,1.03.52,1.36,1.18,1.36.31,0,.63-.15.86-.29.52-.34.78-.08.97.31l.59,1.37c.23.5-.15.76-.42.97Z"/>
          <path class="cls-4" d="M74.15,180.48c-.48-.44-.59-.84-.08-1.41l.5-.61c.48-.59.94-.42,1.41-.1.71.52,1.64.92,2.6.92.63,0,.99-.23.99-.63,0-.5-.65-.73-1.32-.96-1.87-.57-3.97-1.24-3.97-3.46,0-2.04,1.68-3.32,4.3-3.32,1.51,0,3.13.52,3.86,1.16.48.42.57.8.06,1.43l-.44.54c-.36.46-.86.46-1.34.17-.59-.42-1.26-.69-2.1-.69-.59,0-.92.23-.92.57,0,.52.97.69,2.29,1.18,1.72.67,3,1.53,3,3.36,0,2.12-1.81,3.38-4.43,3.38-1.85,0-3.57-.74-4.41-1.51Z"/>
        </g>
        <g class="cls-6">
          <path class="cls-4" d="M92.83,172.06l-.4,1.57c-.17.59-.53.71-.88.57-.34-.1-.74-.21-1.09-.21-1.24,0-1.91.82-1.91,2.06v4.68c0,.61-.34.97-.94.97h-1.74c-.61,0-.94-.36-.94-.97v-8.67c0-.61.34-.97.94-.97h1.11c.61,0,.94.36.94.97v.5c.73-1.03,1.72-1.64,2.88-1.64.57,0,1.07.08,1.51.23.36.13.69.29.52.9Z"/>
        </g>
        <g class="cls-6">
          <path class="cls-4" d="M93.21,176.45c0-3.17,2.46-5.52,5.86-5.52s5.86,2.35,5.86,5.52-2.46,5.52-5.86,5.52-5.86-2.35-5.86-5.52ZM101.33,176.45c0-1.39-.94-2.42-2.27-2.42s-2.29,1.03-2.29,2.42.97,2.42,2.29,2.42,2.27-1.03,2.27-2.42Z"/>
          <path class="cls-4" d="M117.06,172.06v8.67c0,.61-.34.97-.94.97h-1.03c-.61,0-.97-.36-.97-.97v-.42c-.63.97-1.64,1.66-3.13,1.66-2.6,0-4.35-1.72-4.35-4.28v-5.63c0-.61.36-.97.97-.97h1.72c.61,0,.97.36.97.97v5.1c0,1.01.59,1.72,1.55,1.72s1.58-.71,1.58-1.74v-5.08c0-.61.34-.97.94-.97h1.74c.61,0,.94.36.94.97Z"/>
        </g>
        <g class="cls-6">
          <path class="cls-4" d="M127.02,181.24c-.65.46-1.64.74-2.67.74-2.1,0-4.12-1.2-4.12-4.07v-4.16h-.92c-.63,0-.97-.36-.97-.97v-.71c0-.63.34-.97.97-.97h.92v-2.44c0-.61.36-.84.97-.96l1.68-.29c.63-.12.97.32.97.95v2.75h2.08c.61,0,.97.34.97.97v.71c0,.61-.36.97-.97.97h-2.08v3.78c0,1.03.53,1.36,1.18,1.36.32,0,.63-.15.86-.29.52-.34.78-.08.97.31l.59,1.37c.23.5-.15.76-.42.97Z"/>
        </g>
        <g class="cls-6">
          <path class="cls-4" d="M134.37,179.39c.76,0,1.49-.23,2.25-.76.38-.29.69-.44,1.09-.02l.71.73c.46.44.29.8.04,1.07-.94,1.01-2.86,1.55-4.51,1.55-3.36,0-5.82-2.27-5.82-5.54s2.35-5.5,5.65-5.5c1.68,0,3.07.59,3.97,1.49.97.97,1.53,2.35,1.53,3.8,0,.74-.19,1.01-.97,1.01h-6.68c.17,1.41,1.34,2.16,2.73,2.16ZM131.66,175.23h4.09c-.08-.5-.29-.92-.59-1.22-.38-.38-.86-.59-1.47-.59-1.11,0-1.89.69-2.04,1.81Z"/>
        </g>
      </g>
      <g class="cls-6">
        <g class="cls-6">
          <path class="cls-4" d="M34.78,191.04l-4.49,11.8c-.27.69-.65.97-1.28.97h-.21c-.63,0-1.03-.27-1.28-.97l-2.73-7.22-2.73,7.22c-.25.69-.65.97-1.28.97h-.21c-.63,0-1.01-.27-1.28-.97l-4.49-11.8c-.27-.69.19-.99.84-.99h1.55c.65,0,1.15.25,1.39.99l2.33,7.14,2.44-7.27c.21-.65.69-.96,1.32-.96h.23c.63,0,1.11.31,1.32.96l2.48,7.35,2.35-7.22c.23-.74.73-.99,1.39-.99h1.51c.65,0,1.09.29.84.99Z"/>
        </g>
        <g class="cls-6">
          <path class="cls-4" d="M34.51,198.45c0-3.17,2.46-5.52,5.86-5.52s5.86,2.35,5.86,5.52-2.46,5.52-5.86,5.52-5.86-2.35-5.86-5.52ZM42.63,198.45c0-1.39-.94-2.42-2.27-2.42s-2.29,1.03-2.29,2.42.97,2.42,2.29,2.42,2.27-1.03,2.27-2.42Z"/>
        </g>
        <g class="cls-6">
          <path class="cls-4" d="M53.77,201.39c.76,0,1.49-.23,2.25-.76.38-.29.69-.44,1.09-.02l.71.73c.46.44.29.8.04,1.07-.94,1.01-2.86,1.55-4.51,1.55-3.36,0-5.82-2.27-5.82-5.54s2.35-5.5,5.65-5.5c1.68,0,3.07.59,3.97,1.49.97.97,1.53,2.35,1.53,3.8,0,.74-.19,1.01-.97,1.01h-6.68c.17,1.41,1.34,2.16,2.73,2.16ZM51.06,197.23h4.09c-.08-.5-.29-.92-.59-1.22-.38-.38-.86-.59-1.47-.59-1.11,0-1.89.69-2.04,1.81Z"/>
        </g>
        <g class="cls-6">
          <path class="cls-4" d="M60.1,202.48c-.48-.44-.59-.84-.08-1.41l.5-.61c.48-.59.94-.42,1.41-.1.71.52,1.64.92,2.6.92.63,0,.99-.23.99-.63,0-.5-.65-.73-1.32-.96-1.87-.57-3.97-1.24-3.97-3.46,0-2.04,1.68-3.32,4.3-3.32,1.51,0,3.13.52,3.86,1.16.48.42.57.8.06,1.43l-.44.54c-.36.46-.86.46-1.34.17-.59-.42-1.26-.69-2.1-.69-.59,0-.92.23-.92.57,0,.52.97.69,2.29,1.18,1.72.67,3,1.53,3,3.36,0,2.12-1.81,3.38-4.43,3.38-1.85,0-3.57-.74-4.41-1.51Z"/>
        </g>
        <g class="cls-6">
          <path class="cls-4" d="M78.32,203.24c-.65.46-1.64.74-2.67.74-2.1,0-4.12-1.2-4.12-4.07v-4.16h-.92c-.63,0-.97-.36-.97-.97v-.71c0-.63.34-.97.97-.97h.92v-2.44c0-.61.36-.84.97-.96l1.68-.29c.63-.12.97.32.97.95v2.75h2.08c.61,0,.97.34.97.97v.71c0,.61-.36.97-.97.97h-2.08v3.78c0,1.03.52,1.36,1.18,1.36.31,0,.63-.15.86-.29.52-.34.78-.08.97.31l.59,1.37c.23.5-.15.76-.42.97Z"/>
          <path class="cls-4" d="M92.95,203.72c-.5.27-1.3.67-2.44.67-.92,0-1.83-.23-2.54-.71-.73.19-1.51.29-2.31.29-3.67,0-6.21-1.97-6.21-4.85,0-1.68.86-3.02,2.29-3.95-.31-.52-.5-1.22-.5-1.76,0-2.14,1.68-3.61,4.09-3.61,1.74,0,2.96.74,3.76,1.87.29.46.1.76-.23,1.03l-.69.5c-.38.29-.76.27-1.07-.13-.34-.44-.84-.82-1.49-.82-.82.02-1.36.48-1.36,1.18,0,.38.36.95.82,1.64l3.42,5.29c.27-.4.44-.86.44-1.39,0-.67-.36-1.36-.74-1.85-.36-.46-.36-.92.19-1.22l.95-.5c.54-.29,1.05-.11,1.45.42.71.88,1.24,2.02,1.24,3.3s-.48,2.25-1.28,3.04c.67-.02,1.13-.34,1.43-.52.4-.23.73-.13.92.29l.38.9c.17.44-.1.67-.5.88ZM85.92,201.68c.13,0,.23,0,.36-.02l-2.88-4.51c-.5.46-.84,1.07-.84,1.76,0,1.6,1.51,2.77,3.36,2.77Z"/>
        </g>
        <g class="cls-6">
          <path class="cls-4" d="M106.11,199.88c0,2.35-1.99,3.82-5,3.82h-5.4c-.63,0-.99-.36-.99-.99v-11.67c0-.63.36-.99.99-.99h4.98c2.79,0,4.58,1.43,4.58,3.59,0,1.26-.67,2.22-1.72,2.77,1.3.48,2.56,1.57,2.56,3.46ZM102.48,199.46c0-.94-.76-1.58-1.89-1.58h-2.14l-.02,3.15h2.1c1.22,0,1.95-.61,1.95-1.58ZM98.46,192.72l-.02,2.88h1.68c1.01,0,1.64-.55,1.64-1.43s-.63-1.45-1.64-1.45h-1.66Z"/>
        </g>
        <g class="cls-6">
          <path class="cls-4" d="M107.56,189.3c0-1.22.99-2.18,2.18-2.18s2.18.97,2.18,2.18-.97,2.18-2.18,2.18-2.18-.99-2.18-2.18ZM107.92,202.73v-8.67c0-.61.34-.97.97-.97h1.72c.61,0,.97.36.97.97v8.67c0,.61-.36.97-.97.97h-1.72c-.63,0-.97-.36-.97-.97Z"/>
          <path class="cls-4" d="M113.04,207.19l-.67-1.26c-.29-.55-.17-1.01.38-1.32,1.26-.73,1.32-1.15,1.32-3.42v-7.12c0-.61.36-.97.97-.97h1.72c.61,0,.97.36.97.97v7.35c0,3.44-.38,4.7-3.34,6.13-.57.27-1.05.17-1.34-.36ZM113.71,189.3c0-1.22.99-2.18,2.18-2.18s2.18.97,2.18,2.18-.97,2.18-2.18,2.18-2.18-.99-2.18-2.18Z"/>
        </g>
        <g class="cls-6">
          <path class="cls-4" d="M119.9,202.48c-.48-.44-.59-.84-.08-1.41l.5-.61c.48-.59.95-.42,1.41-.1.71.52,1.64.92,2.6.92.63,0,.99-.23.99-.63,0-.5-.65-.73-1.32-.96-1.87-.57-3.97-1.24-3.97-3.46,0-2.04,1.68-3.32,4.3-3.32,1.51,0,3.13.52,3.86,1.16.48.42.57.8.06,1.43l-.44.54c-.36.46-.86.46-1.34.17-.59-.42-1.26-.69-2.1-.69-.59,0-.92.23-.92.57,0,.52.97.69,2.29,1.18,1.72.67,3,1.53,3,3.36,0,2.12-1.81,3.38-4.43,3.38-1.85,0-3.57-.74-4.41-1.51Z"/>
        </g>
        <g class="cls-6">
          <path class="cls-4" d="M138.12,203.24c-.65.46-1.64.74-2.67.74-2.1,0-4.12-1.2-4.12-4.07v-4.16h-.92c-.63,0-.97-.36-.97-.97v-.71c0-.63.34-.97.97-.97h.92v-2.44c0-.61.36-.84.97-.96l1.68-.29c.63-.12.97.32.97.95v2.75h2.08c.61,0,.97.34.97.97v.71c0,.61-.36.97-.97.97h-2.08v3.78c0,1.03.52,1.36,1.18,1.36.31,0,.63-.15.86-.29.53-.34.78-.08.97.31l.59,1.37c.23.5-.15.76-.42.97Z"/>
        </g>
        <g class="cls-6">
          <path class="cls-4" d="M145.37,201.39c.76,0,1.49-.23,2.25-.76.38-.29.69-.44,1.09-.02l.71.73c.46.44.29.8.04,1.07-.94,1.01-2.86,1.55-4.51,1.55-3.36,0-5.82-2.27-5.82-5.54s2.35-5.5,5.65-5.5c1.68,0,3.07.59,3.97,1.49.97.97,1.53,2.35,1.53,3.8,0,.74-.19,1.01-.97,1.01h-6.68c.17,1.41,1.34,2.16,2.73,2.16ZM142.66,197.23h4.09c-.08-.5-.29-.92-.59-1.22-.38-.38-.86-.59-1.47-.59-1.11,0-1.89.69-2.04,1.81Z"/>
          <path class="cls-4" d="M159.96,194.06l-.4,1.57c-.17.59-.52.71-.88.57-.34-.1-.74-.21-1.09-.21-1.24,0-1.91.82-1.91,2.06v4.68c0,.61-.34.97-.94.97h-1.74c-.61,0-.94-.36-.94-.97v-8.67c0-.61.34-.97.94-.97h1.11c.61,0,.95.36.95.97v.5c.73-1.03,1.72-1.64,2.88-1.64.57,0,1.07.08,1.51.23.36.13.69.29.52.9Z"/>
        </g>
      </g>
      <g class="cls-6">
        <g class="cls-6">
          <path class="cls-10" d="M15.79,221.42v-8.51c0-.14.08-.23.24-.28l.17-.04c.2-.06.29.05.29.24v8.59c0,.17-.1.28-.26.28h-.19c-.15,0-.26-.12-.26-.28Z"/>
          <path class="cls-10" d="M23.61,217.67v3.75c0,.19-.09.28-.26.28h-.17c-.17,0-.26-.12-.26-.28v-.68c-.52.7-1.4,1.11-2.32,1.11-1.47,0-2.47-.82-2.47-2.05s1.08-2.1,2.66-2.1c.83,0,1.55.23,2.12.54v-.72c0-1.04-.77-1.74-1.95-1.74-.69,0-1.42.26-2.09.79-.15.13-.27.08-.37-.04l-.05-.06c-.13-.15-.06-.32.08-.43.83-.64,1.59-.9,2.46-.9,1.65,0,2.6.96,2.6,2.52ZM22.93,219.38v-.49c-.46-.23-1.27-.56-2.11-.56-1.18,0-1.96.59-1.96,1.49,0,.83.73,1.4,1.79,1.4,1.14,0,2.28-.68,2.28-1.83Z"/>
          <path class="cls-10" d="M31.15,217.76v3.66c0,.17-.09.28-.26.28h-.19c-.15,0-.26-.12-.26-.28v-3.6c0-1.24-.78-2.05-2-2.05s-2.11.85-2.11,2.07v3.57c0,.17-.1.28-.26.28h-.19c-.15,0-.26-.12-.26-.28v-5.89c0-.17.1-.27.26-.27h.15c.17,0,.26.1.26.27v.76c.45-.69,1.24-1.14,2.25-1.14,1.59,0,2.6,1.06,2.6,2.61Z"/>
          <path class="cls-10" d="M38.85,215.53v5.63c0,2-1.37,2.93-3.05,2.93-1.24,0-2.15-.46-2.89-1.38-.12-.15-.12-.31.06-.44l.05-.04c.13-.08.27-.12.4.06.56.74,1.29,1.17,2.39,1.17,1.37,0,2.34-.78,2.34-2.29v-1.19c-.52.7-1.36,1.14-2.39,1.14-1.78,0-3.07-1.31-3.07-3s1.29-2.98,3.09-2.98c1.05,0,1.89.45,2.41,1.17v-.78c0-.17.09-.27.26-.27h.15c.17,0,.26.1.26.27ZM38.19,218.14c0-1.36-.99-2.36-2.39-2.36s-2.38,1-2.38,2.34.96,2.36,2.38,2.36,2.39-.99,2.39-2.34Z"/>
          <path class="cls-10" d="M40.39,220.77c-.09-.14-.14-.28.03-.41l.06-.04c.14-.12.26-.14.41.03.41.58,1,.88,1.74.88.91,0,1.52-.45,1.52-1.13,0-.9-.9-1.18-1.81-1.56-.82-.33-1.65-.74-1.65-1.7,0-1.02.84-1.69,2.04-1.69.72,0,1.4.26,1.91.88.1.12.17.26.01.41l-.05.05c-.12.1-.26.15-.42,0-.45-.52-.87-.72-1.47-.72-.77,0-1.29.41-1.29,1s.54.9,1.24,1.18c1.11.46,2.21.82,2.21,2.14,0,1.06-.87,1.77-2.19,1.77-.88,0-1.78-.36-2.29-1.09Z"/>
        </g>
      </g>
      <g class="cls-6">
        <g class="cls-6">
          <path class="cls-10" d="M54.63,217.67v3.75c0,.19-.09.28-.26.28h-.17c-.17,0-.26-.12-.26-.28v-.68c-.52.7-1.4,1.11-2.32,1.11-1.47,0-2.47-.82-2.47-2.05s1.08-2.1,2.66-2.1c.83,0,1.55.23,2.12.54v-.72c0-1.04-.77-1.74-1.95-1.74-.69,0-1.42.26-2.09.79-.15.13-.27.08-.37-.04l-.05-.06c-.13-.15-.06-.32.08-.43.83-.64,1.59-.9,2.46-.9,1.65,0,2.6.96,2.6,2.52ZM53.95,219.38v-.49c-.46-.23-1.27-.56-2.11-.56-1.18,0-1.96.59-1.96,1.49,0,.83.73,1.4,1.79,1.4,1.14,0,2.28-.68,2.28-1.83Z"/>
          <path class="cls-10" d="M56.69,221.42v-8.51c0-.14.08-.23.24-.28l.17-.04c.2-.06.29.05.29.24v8.59c0,.17-.1.28-.26.28h-.19c-.15,0-.26-.12-.26-.28Z"/>
          <path class="cls-10" d="M59.57,221.42v-8.51c0-.14.08-.23.24-.28l.17-.04c.2-.06.29.05.29.24v8.59c0,.17-.1.28-.26.28h-.19c-.15,0-.26-.12-.26-.28Z"/>
          <path class="cls-10" d="M65.24,221.21c.72,0,1.55-.28,2.2-.93.17-.14.31-.12.42,0l.08.06c.14.14.08.29-.01.4-.73.77-1.79,1.11-2.66,1.11-1.74,0-3.33-1.24-3.33-3.34,0-1.92,1.33-3.37,3.19-3.37.99,0,1.78.4,2.3,1.05.52.59.81,1.37.81,2.18,0,.2-.13.35-.35.35h-5.22c.09,1.57,1.25,2.5,2.57,2.5ZM62.67,218.08h4.85c-.06-.55-.24-1.02-.54-1.4-.4-.56-1.04-.9-1.86-.9-1.36,0-2.32.92-2.46,2.29Z"/>
        </g>
      </g>
      <g class="cls-6">
        <g class="cls-6">
          <path class="cls-10" d="M74.53,213.65v7.78c0,.18-.1.27-.27.27h-.19c-.17,0-.27-.09-.27-.27v-7.37h-1.23c-.18,0-.31-.09-.23-.29l.05-.12c.08-.19.14-.27.33-.27h1.54c.17,0,.27.09.27.27Z"/>
          <path class="cls-10" d="M82.42,219.27c0,1.5-1.27,2.59-3.01,2.59s-3-1.09-3-2.59c0-1.06.7-1.95,1.74-2.28-.68-.32-1.13-.95-1.13-1.7,0-1.19,1.01-2.06,2.38-2.06s2.39.87,2.39,2.06c0,.76-.44,1.38-1.15,1.69,1.05.32,1.77,1.23,1.77,2.29ZM81.69,219.27c0-1.13-.97-1.96-2.28-1.96s-2.27.83-2.27,1.96.96,1.93,2.27,1.93,2.28-.82,2.28-1.93ZM77.79,215.29c0,.83.69,1.45,1.63,1.45s1.64-.62,1.64-1.45-.69-1.41-1.64-1.41-1.63.6-1.63,1.41Z"/>
          <path class="cls-10" d="M92.17,221.7h-.28c-.18,0-.28-.05-.42-.24l-2.36-2.85-1.08,1.08v1.74c0,.17-.09.28-.26.28h-.18c-.17,0-.26-.12-.26-.28v-8.51c0-.14.06-.23.24-.28l.15-.04c.22-.06.29.05.29.24v5.98l3.34-3.32c.17-.17.23-.23.42-.23h.28c.15,0,.24.15.12.28l-2.61,2.59,2.69,3.29c.12.13.04.28-.1.28Z"/>
          <path class="cls-10" d="M98.79,215.53v5.89c0,.17-.1.28-.26.28h-.17c-.17,0-.26-.12-.26-.28v-.67c-.43.68-1.19,1.1-2.19,1.1-1.47,0-2.48-1.04-2.48-2.61v-3.71c0-.17.09-.27.26-.27h.18c.17,0,.26.1.26.27v3.71c0,1.19.78,1.98,1.9,1.98,1.25,0,2.06-.86,2.06-2.09v-3.61c0-.17.1-.27.26-.27h.19c.15,0,.26.1.26.27Z"/>
          <path class="cls-10" d="M106.41,217.76v3.66c0,.17-.09.28-.26.28h-.19c-.15,0-.26-.12-.26-.28v-3.6c0-1.24-.78-2.05-2-2.05s-2.11.85-2.11,2.07v3.57c0,.17-.1.28-.26.28h-.19c-.15,0-.26-.12-.26-.28v-5.89c0-.17.1-.27.26-.27h.15c.17,0,.26.1.26.27v.76c.45-.69,1.24-1.14,2.25-1.14,1.59,0,2.6,1.06,2.6,2.61Z"/>
        </g>
        <g class="cls-6">
          <path class="cls-10" d="M107.89,220.77c-.09-.14-.14-.28.03-.41l.06-.04c.14-.12.26-.14.41.03.41.58,1,.88,1.74.88.91,0,1.52-.45,1.52-1.13,0-.9-.9-1.18-1.8-1.56-.82-.33-1.65-.74-1.65-1.7,0-1.02.84-1.69,2.04-1.69.72,0,1.4.26,1.91.88.1.12.17.26.01.41l-.05.05c-.12.1-.26.15-.42,0-.45-.52-.87-.72-1.47-.72-.77,0-1.29.41-1.29,1s.54.9,1.24,1.18c1.11.46,2.21.82,2.21,2.14,0,1.06-.87,1.77-2.19,1.77-.88,0-1.78-.36-2.29-1.09Z"/>
        </g>
        <g class="cls-6">
          <path class="cls-10" d="M116.95,221.52c-.33.22-.67.33-1.11.33-1.1,0-1.79-.67-1.79-1.93v-4.07h-.83c-.17,0-.27-.08-.27-.24v-.1c0-.15.1-.24.27-.24h.83v-1.95c0-.13.08-.23.26-.28l.15-.04c.21-.05.29.05.29.24v2.02h1.78c.15,0,.27.09.27.24v.1c0,.17-.12.24-.27.24h-1.78v4.06c0,.88.42,1.32,1.14,1.32.31,0,.51-.1.75-.24.19-.12.31-.06.4.09l.04.05c.1.18-.03.32-.13.4Z"/>
        </g>
        <g class="cls-6">
          <path class="cls-10" d="M126.36,215.53l-2.18,6c-.06.18-.14.23-.26.23h-.01c-.12,0-.18-.05-.26-.23l-1.78-4.98-1.79,4.98c-.08.18-.14.23-.26.23h-.01c-.12,0-.19-.05-.26-.23l-2.14-6c-.05-.14.01-.27.17-.27h.22c.17,0,.28.08.35.26l1.65,4.98,1.81-5.08c.05-.17.14-.22.26-.22h.03c.12,0,.21.05.27.22l1.78,5.08,1.68-4.98c.06-.18.18-.26.35-.26h.22c.17,0,.23.13.18.27Z"/>
        </g>
        <g class="cls-6">
          <path class="cls-10" d="M130.38,221.21c.72,0,1.55-.28,2.2-.93.17-.14.31-.12.42,0l.08.06c.14.14.08.29-.01.4-.73.77-1.79,1.11-2.66,1.11-1.74,0-3.33-1.24-3.33-3.34,0-1.92,1.33-3.37,3.19-3.37.99,0,1.78.4,2.3,1.05.53.59.81,1.37.81,2.18,0,.2-.13.35-.35.35h-5.22c.09,1.57,1.25,2.5,2.57,2.5ZM127.81,218.08h4.85c-.06-.55-.24-1.02-.54-1.4-.4-.56-1.04-.9-1.86-.9-1.36,0-2.32.92-2.46,2.29Z"/>
          <path class="cls-10" d="M138.19,215.59l-.03.1c-.06.19-.21.2-.36.15-.18-.05-.32-.08-.47-.08-.97,0-1.68.93-1.68,2.23v3.42c0,.17-.1.28-.26.28h-.19c-.15,0-.26-.12-.26-.28v-5.89c0-.17.1-.27.26-.27h.15c.17,0,.26.1.26.27v.82c.35-.74.96-1.2,1.78-1.2.26,0,.42.03.64.09.13.04.23.14.15.36Z"/>
        </g>
        <g class="cls-6">
          <path class="cls-10" d="M144.19,221.7h-.28c-.18,0-.28-.05-.42-.24l-2.36-2.85-1.08,1.08v1.74c0,.17-.09.28-.26.28h-.18c-.17,0-.26-.12-.26-.28v-8.51c0-.14.06-.23.24-.28l.15-.04c.22-.06.29.05.29.24v5.98l3.34-3.32c.17-.17.23-.23.42-.23h.28c.15,0,.24.15.12.28l-2.61,2.59,2.69,3.29c.12.13.04.28-.1.28Z"/>
        </g>
        <g class="cls-6">
          <path class="cls-10" d="M148.18,221.21c.72,0,1.55-.28,2.2-.93.17-.14.31-.12.42,0l.08.06c.14.14.08.29-.01.4-.73.77-1.79,1.11-2.66,1.11-1.74,0-3.33-1.24-3.33-3.34,0-1.92,1.33-3.37,3.19-3.37.99,0,1.78.4,2.3,1.05.53.59.81,1.37.81,2.18,0,.2-.13.35-.35.35h-5.22c.09,1.57,1.25,2.5,2.57,2.5ZM145.61,218.08h4.85c-.06-.55-.24-1.02-.54-1.4-.4-.56-1.04-.9-1.86-.9-1.36,0-2.32.92-2.46,2.29Z"/>
          <path class="cls-10" d="M158.27,217.76v3.66c0,.17-.09.28-.26.28h-.19c-.15,0-.26-.12-.26-.28v-3.6c0-1.24-.78-2.05-2-2.05s-2.11.85-2.11,2.07v3.57c0,.17-.1.28-.26.28h-.19c-.15,0-.26-.12-.26-.28v-5.89c0-.17.1-.27.26-.27h.15c.17,0,.26.1.26.27v.76c.45-.69,1.24-1.14,2.25-1.14,1.59,0,2.6,1.06,2.6,2.61Z"/>
        </g>
      </g>
      <rect class="cls-7" x="6.48" y="118.54" width="70.8" height="5" transform="translate(-6.28 2.36) rotate(-3)"/>
      <g class="cls-9">
        <g>
          <path class="cls-3" d="M77.2,119.1c8.5-.4,11.6-4.5,17.6-4.9,6.5-.3,9.3,3.4,14.6,3.2,6.1-.3,8.2-4.2,15.9-4.6,5.7-.3,9.4,3.3,16.5,2.9"/>
          <path class="cls-5" d="M135.8,57.5c10.7,0,19.5-8.7,19.5-19.5s-8.7-19.5-19.5-19.5-19.5,8.7-19.5,19.5,8.7,19.5,19.5,19.5"/>
        </g>
      </g>
      <g class="cls-6">
        <g class="cls-6">
          <path class="cls-10" d="M135.03,34.37c0,1.96-1.81,3.33-4.43,3.33-1.52,0-2.98-.68-3.89-1.52-.37-.34-.56-.66-.22-1l.64-.68c.29-.32.64-.52,1.05-.14.57.56,1.49,1.03,2.32,1.03.95,0,1.52-.52,1.52-1.27s-.73-1.27-1.88-1.27h-.52c-.51,0-.78-.29-.78-.78v-.49c0-.51.27-.78.78-.78h.66c.9,0,1.5-.46,1.5-1.12s-.61-1.12-1.47-1.12c-.71,0-1.35.19-1.93.63-.39.3-.76.25-1.07-.14l-.46-.61c-.3-.39-.19-.71.22-1.01,1.01-.76,2.27-1.15,3.65-1.15,2.33,0,3.96,1.29,3.96,3.11,0,1.06-.54,1.84-1.42,2.37,1.08.54,1.76,1.39,1.76,2.59Z"/>
          <path class="cls-10" d="M145.3,34.15v.47c0,.49-.29.76-.79.76h-.76v1.35c0,.49-.29.76-.79.76h-1.25c-.51,0-.79-.27-.79-.78v-1.34h-4.29c-.51,0-.79-.27-.79-.76v-.68c0-.49.12-.73.39-1.06l4.48-5.61c.37-.46.56-.76,1.46-.76h.71c.54,0,.9.37.9.88v5.97h.76c.52,0,.79.27.79.79ZM140.92,33.36v-2.99l-2.3,2.99h2.3Z"/>
        </g>
      </g>
      <g class="cls-6">
        <g class="cls-6">
          <path class="cls-10" d="M132.95,49.3h-1.4c-.38,0-.63-.22-.87-.58l-1.22-1.82-.41.47v1.33c0,.37-.22.59-.59.59h-1.04c-.37,0-.58-.22-.58-.59v-7.76c0-.37.2-.53.58-.59l1.02-.19c.38-.08.6.21.6.59v4.69l1.61-2.04c.28-.35.49-.58.87-.58h1.31c.36,0,.6.23.31.59l-2.01,2.38,2.12,2.91c.29.36.05.59-.32.59Z"/>
          <path class="cls-10" d="M144.85,45.52v3.19c0,.37-.21.59-.58.59h-1.06c-.37,0-.58-.22-.58-.59v-3.02c0-.65-.36-1.08-.97-1.08s-1,.42-1,1.08v3.02c0,.37-.2.59-.58.59h-1.06c-.37,0-.58-.22-.58-.59v-3.02c0-.65-.36-1.08-.97-1.08s-1,.42-1,1.08v3.02c0,.37-.21.59-.58.59h-1.06c-.37,0-.58-.22-.58-.59v-5.29c0-.37.2-.59.58-.59h.68c.37,0,.58.22.58.59v.35c.42-.6,1.06-1.04,1.98-1.04.86,0,1.55.32,2,.88.47-.52,1.18-.88,2.09-.88,1.59,0,2.69,1.09,2.69,2.79Z"/>
        </g>
      </g>
    </g>
  </g>
</svg>