<?xml version="1.0" encoding="UTF-8"?>
<svg id="Laag_1" xmlns="http://www.w3.org/2000/svg" xmlns:xlink="http://www.w3.org/1999/xlink" version="1.1" viewBox="0 0 139.1 177.7">
  <!-- Generator: Adobe Illustrator 29.5.1, SVG Export Plug-In . SVG Version: 2.1.0 Build 141)  -->
  <defs>
    <clipPath id="clippath">
      <rect width="139.1" height="177.7" fill="none"/>
    </clipPath>
    <clipPath id="clippath-1">
      <rect width="139.1" height="177.7" fill="none"/>
    </clipPath>
    <clipPath id="clippath-2">
      <rect width="139.1" height="177.7" fill="none"/>
    </clipPath>
  </defs>
  <g clip-path="url(#clippath)">
    <rect width="139.1" height="177.7" fill="#ffdf44"/>
    <g clip-path="url(#clippath-1)">
      <path d="M69.8,117c26.1,0,47.2-21.1,47.2-47.2s-21.1-47.2-47.2-47.2-47.2,21.1-47.2,47.2,21.1,47.2,47.2,47.2" fill="#957e17"/>
      <path d="M92.6,86.9c-5.4,0-9.8-4.4-9.8-9.8s1.1-5.2,3.1-7.1l.4-.3,4.6,8.4c.3.6,1,1,1.7,1s.7,0,.9-.2c.5-.3.8-.7.9-1.2.1-.5,0-1-.2-1.5l-4.6-8.4h.5c.8-.3,1.6-.4,2.4-.4,5.4,0,9.8,4.4,9.8,9.8,0,5.4-4.4,9.8-9.8,9.8M70.2,71.3h-.3c-.3-.2-.7-.3-1.1-.3h-.2s-5.9-13.2-5.9-13.2h14.9l-7.4,13.5ZM64.9,72.7c-.5.6-.9,1.4-1,2.2v.3h-4.5v-.3c-.6-3.3-2.4-6.3-5-8.4l-.3-.2,4.5-8.2,6.5,14.4-.2.2ZM55.2,79.6c-1.1,4.3-5,7.3-9.4,7.3s-9.8-4.4-9.8-9.8,4.4-9.8,9.8-9.8,1.6.1,2.4.3h.5c0,.1-4.6,8.5-4.6,8.5,0,0,0,0,0,0,0,0,0,.1,0,.2,0,0,0,.1,0,.2,0,0,0,.1,0,.2,0,0,0,.1,0,.2h0s0,0,0,0h0s0,0,0,0c0,0,0,0,0,0,0,0,0,.2,0,.2,0,0,0,.1,0,.2,0,0,0,.1,0,.2,0,0,0,.1,0,.2,0,0,0,.1,0,.2h0c0,0,0,.1,0,.2,0,0,0,0,.1.2,0,0,0,0,.1.1,0,0,0,0,.2.1,0,0,.1,0,.2.1h0s0,0,0,0h0s0,0,0,0c0,0,.1,0,.2,0,0,0,.1,0,.2,0,0,0,0,0,.2,0,0,0,.1,0,.2,0,0,0,0,0,0,0h9.6s-.1.5-.1.5ZM52.1,69.7l.4.3c1.3,1.3,2.3,2.9,2.7,4.6v.5c.1,0-6.1,0-6.1,0l3-5.5ZM92.6,63.5c-1.5,0-3,.3-4.5.8h-.3c0,.1-4.9-8.9-4.9-8.9v-3.9h5.9c1.1,0,2.1-.9,2.1-2.1s-.9-2.1-2.1-2.1h-7.9c-1.1,0-2.1.9-2.1,2.1s0,.3,0,.5h0v4h-18l-1.5-3.3h4.3c1.1,0,2-.9,2-2s-.9-2-2-2h-10.9c-1.1,0-2,.9-2,2s.9,2,2,2h2.3l1.3,3-5.9,10.8h-.3c-1.5-.6-3-.9-4.5-.9-7.5,0-13.7,6.1-13.7,13.7s6.1,13.7,13.7,13.7,12.3-4.8,13.5-11.4v-.3h6c.9.9,2.1,1.4,3.3,1.4,2.6,0,4.8-2.1,4.8-4.8s0-.9-.2-1.3v-.2s7.8-14.3,7.8-14.3l3.5,6.3-.3.2c-3.3,2.6-5.2,6.5-5.2,10.7,0,7.5,6.1,13.7,13.7,13.7s13.7-6.1,13.7-13.7-6.1-13.7-13.7-13.7" fill="#ffdf44"/>
    </g>
    <text transform="translate(11.7 140.4)" fill="#303f56" font-family="Goldplay-Bold, Goldplay" font-size="12.8" font-weight="700"><tspan x="0" y="0" letter-spacing="0em">F</tspan><tspan x="7.1" y="0">i</tspan><tspan x="10.8" y="0" letter-spacing="0em">e</tspan><tspan x="18.2" y="0">ts</tspan><tspan x="30.2" y="0" letter-spacing="0em">r</tspan><tspan x="35.6" y="0">ou</tspan><tspan x="51.3" y="0" letter-spacing="0em">t</tspan><tspan x="56.9" y="0">e</tspan><tspan x="64.4" y="0" letter-spacing="0em"> </tspan><tspan x="66.9" y="0" letter-spacing="0em">v</tspan><tspan x="73.8" y="0" letter-spacing="0em">erha</tspan><tspan x="102.1" y="0" letter-spacing="0em">r</tspan><tspan x="107.5" y="0">d</tspan></text>
    <text transform="translate(9.1 155.6)" fill="#303f56" font-family="Goldplay-Regular, Goldplay" font-size="12.8"><tspan x="0" y="0">langs 16 kun</tspan><tspan x="69" y="0" letter-spacing="0em">s</tspan><tspan x="74.5" y="0" letter-spacing="0em">t</tspan><tspan x="78.7" y="0" letter-spacing="0em">w</tspan><tspan x="88.2" y="0">er</tspan><tspan x="99.9" y="0" letter-spacing="0em">k</tspan><tspan x="105.9" y="0">en</tspan></text>
    <rect x="5" y="90.5" width="131" height="4" fill="#ffdf44"/>
    <g clip-path="url(#clippath-2)">
      <path d="M108.6,46c8.6,0,15.6-7,15.6-15.6s-7-15.6-15.6-15.6-15.6,7-15.6,15.6,7,15.6,15.6,15.6" fill="#303f56"/>
    </g>
    <text transform="translate(100.3 30.1)" fill="#fff" font-family="Goldplay-Bold, Goldplay" font-size="13.5" font-weight="700"><tspan x="0" y="0">30</tspan></text>
    <text transform="translate(116.9 30.1)" fill="#fff" font-family="Goldplay-Bold, Goldplay" font-size="13.5" font-weight="700"><tspan x="0" y="0"> </tspan></text>
    <text transform="translate(100.8 39.5)" fill="#fff" font-family="Goldplay-Bold, Goldplay" font-size="10.3" font-weight="700"><tspan x="0" y="0">km</tspan></text>
  </g>
</svg>